<?xml version="1.0" encoding="UTF-8"?>
<!DOCTYPE svg PUBLIC "-//W3C//DTD SVG 1.1//EN" "http://www.w3.org/Graphics/SVG/1.1/DTD/svg11.dtd">
<!-- Creator: CorelDRAW X5 -->
<svg xmlns="http://www.w3.org/2000/svg" xml:space="preserve" width="106.593mm" height="30.5933mm" style="shape-rendering:geometricPrecision; text-rendering:geometricPrecision; image-rendering:optimizeQuality; fill-rule:evenodd; clip-rule:evenodd"
viewBox="0 0 9844 2825"
 xmlns:xlink="http://www.w3.org/1999/xlink">
 <defs>
  <style type="text/css">
   <![CDATA[
    .fil0 {fill:#00AFEF;fill-rule:nonzero}
   ]]>
  </style>
   <clipPath id="id0">
    <rect width="2157" height="1529"/>
   </clipPath>
 </defs>
 <g id="Layer_x0020_1">
  <metadata id="CorelCorpID_0Corel-Layer"/>
  <path class="fil0" d="M2202 268l444 0c100,0 176,8 229,23 71,21 131,58 181,111 50,53 89,118 115,195 26,77 39,172 39,284 0,99 -12,184 -37,256 -30,87 -73,158 -129,212 -42,41 -99,73 -171,96 -53,17 -125,25 -215,25l-457 0 0 -1203zm243 204l0 796 181 0c68,0 117,-4 147,-11 39,-10 72,-26 98,-50 26,-24 47,-62 64,-116 16,-54 25,-127 25,-220 0,-93 -8,-164 -25,-214 -17,-50 -39,-89 -69,-116 -30,-28 -67,-47 -113,-57 -34,-8 -100,-11 -199,-11l-109 0z"/>
  <polygon id="1" class="fil0" points="3322,1470 3322,268 3565,268 3565,1470 "/>
  <polygon id="12" class="fil0" points="3706,1470 3706,268 4069,268 4287,1088 4503,268 4867,268 4867,1470 4642,1470 4642,524 4403,1470 4169,1470 3931,524 3931,1470 "/>
  <path id="123" class="fil0" d="M4960 1079l236 -23c14,80 43,138 87,175 43,37 102,56 176,56 78,0 137,-17 177,-50 40,-33 60,-72 60,-116 0,-29 -8,-53 -25,-73 -17,-20 -46,-38 -87,-52 -28,-10 -93,-27 -194,-53 -130,-32 -221,-72 -274,-119 -74,-66 -111,-147 -111,-242 0,-61 17,-118 52,-172 35,-53 85,-94 150,-122 66,-28 144,-42 237,-42 151,0 265,33 341,99 76,66 116,155 120,265l-243 11c-10,-62 -33,-106 -67,-133 -34,-27 -85,-41 -154,-41 -71,0 -126,14 -166,43 -26,18 -39,43 -39,74 0,29 12,53 36,73 31,26 105,53 223,80 118,28 206,57 262,87 57,30 101,71 133,122 32,52 48,116 48,192 0,69 -19,134 -57,193 -38,60 -92,105 -162,134 -70,29 -157,44 -262,44 -152,0 -269,-35 -350,-105 -81,-70 -130,-173 -146,-307z"/>
  <polygon id="1234" class="fil0" points="6028,1150 6028,919 6480,919 6480,1150 "/>
  <path id="12345" class="fil0" d="M7256 1256l0 214 -808 0c9,-81 35,-158 79,-230 44,-73 130,-169 259,-288 104,-97 168,-162 191,-197 32,-48 48,-95 48,-141 0,-51 -14,-91 -41,-118 -28,-28 -66,-41 -115,-41 -48,0 -86,15 -115,43 -28,29 -45,77 -49,144l-230 -23c14,-127 57,-218 129,-273 72,-55 162,-83 271,-83 119,0 212,32 280,96 68,64 102,144 102,239 0,54 -10,106 -29,155 -19,49 -50,100 -92,154 -28,36 -78,87 -151,153 -73,67 -119,111 -138,133 -19,22 -35,43 -47,64l458 0z"/>
  <path id="123456" class="fil0" d="M7714 263c117,0 208,42 273,125 78,98 117,262 117,490 0,227 -39,391 -118,491 -65,82 -156,123 -272,123 -117,0 -211,-45 -283,-135 -72,-90 -108,-250 -108,-481 0,-227 39,-390 118,-489 65,-82 156,-123 272,-123zm0 191c-28,0 -53,9 -74,27 -22,18 -39,50 -51,96 -16,60 -24,160 -24,301 0,141 7,238 21,291 14,53 32,88 54,106 22,17 46,26 74,26 28,0 53,-9 75,-27 22,-18 39,-50 51,-95 16,-59 24,-159 24,-300 0,-141 -7,-238 -21,-291 -14,-53 -32,-88 -54,-106 -22,-18 -46,-27 -74,-27z"/>
  <path id="1234567" class="fil0" d="M8951 1256l0 214 -808 0c9,-81 35,-158 79,-230 44,-73 130,-169 259,-288 104,-97 168,-162 191,-197 32,-48 48,-95 48,-141 0,-51 -14,-91 -41,-118 -28,-28 -66,-41 -115,-41 -48,0 -86,15 -115,43 -28,29 -45,77 -49,144l-230 -23c14,-127 57,-218 129,-273 72,-55 162,-83 271,-83 119,0 212,32 280,96 68,64 102,144 102,239 0,54 -10,106 -29,155 -19,49 -50,100 -92,154 -28,36 -78,87 -151,153 -73,67 -119,111 -138,133 -19,22 -35,43 -47,64l458 0z"/>
  <path id="12345678" class="fil0" d="M9472 1470l0 -242 -492 0 0 -202 522 -764 193 0 0 763 149 0 0 203 -149 0 0 242 -223 0zm0 -445l0 -411 -276 411 276 0z"/>
  <g style="clip-path:url(#id0)">
   <image transform="matrix(1 0 0 1 -5329.63 7735.53)" x="5330" y="-7736" width="2157" height="1529" xlink:href="DIMS 2024_Images\DIMS 2024_ImgID1.png"/>
  </g>
  <path class="fil0" d="M1896 2150c0,15 0,29 0,42 0,13 0,25 -1,35 0,10 -1,19 -2,26 -1,5 -1,9 -2,13 -1,4 -2,7 -4,9 -2,2 -4,4 -8,5 -2,0 -5,1 -8,1 -3,0 -6,1 -10,1 -3,0 -5,0 -6,1 -1,1 -2,2 -2,3 0,2 1,3 3,4 2,1 4,1 7,1 5,0 10,0 16,0 6,0 12,0 17,0 6,0 11,0 16,0 5,0 9,0 11,0 6,0 13,0 21,1 8,1 17,1 26,2 9,1 19,1 28,2 10,1 19,1 27,1 22,0 42,-2 60,-6 18,-4 33,-8 46,-14 13,-6 24,-12 34,-19 9,-7 17,-13 22,-19 7,-7 13,-15 20,-24 6,-9 12,-19 17,-31 5,-11 9,-24 12,-37 3,-13 4,-28 4,-43 0,-19 -2,-37 -7,-52 -4,-15 -10,-29 -17,-41 -7,-12 -15,-22 -23,-30 -11,-11 -22,-20 -35,-27 -13,-7 -26,-12 -39,-16 -14,-4 -27,-7 -41,-8 -14,-2 -28,-3 -41,-3 -13,0 -26,0 -38,0 -10,0 -19,0 -29,0 -10,0 -18,0 -26,1 -8,0 -14,0 -20,0 -5,0 -11,0 -18,0 -8,0 -16,0 -25,-1 -9,0 -18,0 -27,0 -4,0 -6,0 -8,1 -2,1 -3,2 -3,3 0,2 1,3 2,3 1,1 3,1 6,1 4,0 7,0 11,0 3,0 6,1 8,1 5,1 9,3 12,5 3,2 5,5 6,9 1,4 2,8 2,14 0,3 0,6 0,10 0,3 0,7 0,12 0,5 0,11 0,18 0,7 0,16 0,26 0,10 0,23 0,37l0 85zm61 -93c0,-10 0,-19 0,-29 0,-10 0,-19 0,-28 0,-9 0,-17 0,-24 0,-7 0,-13 0,-17 0,-3 0,-5 1,-6 1,-1 2,-3 5,-4 1,0 3,-1 5,-1 2,0 5,-1 8,-1 3,0 6,-1 9,-1 3,0 6,0 8,0 10,0 20,0 31,2 11,1 23,3 35,7 12,3 24,8 36,15 12,6 24,15 35,26 5,5 11,11 16,19 5,7 10,16 15,26 5,10 8,21 11,34 3,13 4,27 4,42 0,17 -1,33 -4,48 -3,15 -7,29 -13,41 -6,12 -14,23 -24,32 -10,8 -20,15 -31,20 -11,5 -23,9 -36,11 -13,2 -28,4 -44,3 -13,0 -23,-1 -32,-3 -9,-2 -16,-4 -21,-7 -5,-3 -9,-6 -11,-9 -1,-2 -2,-5 -3,-9 -1,-4 -1,-9 -2,-14 0,-5 -1,-10 -1,-14 0,-3 0,-9 0,-18 0,-9 0,-20 0,-34 0,-14 0,-29 0,-46l0 -61z"/>
  <path id="1" class="fil0" d="M2468 2296c22,0 42,-3 61,-8 19,-6 35,-13 50,-24 15,-10 27,-22 37,-36 10,-14 18,-29 23,-46 5,-17 8,-35 8,-54 0,-24 -4,-45 -12,-64 -8,-19 -20,-35 -35,-49 -15,-13 -34,-24 -55,-31 -21,-7 -46,-11 -73,-11 -22,0 -41,2 -58,7 -17,5 -32,11 -46,19 -13,8 -25,17 -34,28 -9,11 -17,22 -23,34 -6,12 -11,24 -13,37 -3,12 -4,25 -4,36 0,12 1,25 4,37 3,13 7,25 13,37 6,12 14,23 23,34 9,10 21,20 33,28 13,8 28,14 44,19 17,5 35,7 56,7zm17 -22c-20,0 -38,-4 -54,-12 -16,-8 -29,-19 -40,-32 -11,-14 -20,-30 -26,-48 -6,-18 -9,-38 -9,-59 0,-20 2,-38 6,-52 4,-15 10,-27 17,-36 7,-10 15,-17 24,-23 9,-6 18,-10 28,-12 10,-2 19,-3 29,-3 17,0 33,3 48,10 15,7 28,17 39,29 11,13 20,28 26,46 6,18 10,39 10,61 0,19 -2,36 -5,50 -3,14 -8,26 -13,36 -6,10 -12,17 -19,24 -7,6 -14,11 -21,14 -7,3 -14,5 -21,6 -7,1 -13,2 -18,2z"/>
  <path id="12" class="fil0" d="M2787 2296c8,0 16,0 24,-1 8,-1 17,-3 25,-5 8,-2 16,-6 22,-11 10,-7 19,-15 25,-23 6,-8 11,-17 14,-26 3,-9 4,-18 4,-29 0,-12 -2,-24 -7,-36 -5,-11 -12,-22 -23,-33 -11,-11 -26,-21 -44,-31l-17 -10c-10,-5 -17,-10 -23,-15 -6,-5 -11,-9 -14,-13 -3,-4 -5,-8 -6,-13 -1,-4 -2,-9 -2,-13 0,-7 2,-13 5,-19 3,-5 7,-10 13,-14 5,-4 12,-7 19,-9 7,-2 14,-3 22,-3 9,0 17,1 23,3 6,2 11,5 15,8 4,3 7,6 9,8 3,4 5,7 7,11 2,4 3,7 3,10 1,3 1,5 1,6 0,5 1,7 4,7 2,0 3,-1 4,-3 1,-2 1,-5 1,-10 0,-11 0,-19 0,-26 0,-7 0,-12 1,-15 0,-4 0,-6 0,-8 0,-1 0,-3 -1,-3 -1,-1 -2,-1 -4,-2 -6,-2 -14,-3 -24,-5 -10,-1 -23,-2 -37,-2 -15,0 -29,2 -42,6 -13,4 -24,9 -34,17 -10,7 -18,16 -23,26 -6,10 -8,22 -8,34 0,12 2,23 6,34 4,11 11,21 21,30 10,10 23,20 40,29l25 15c9,6 17,11 23,16 6,5 10,10 13,15 3,5 5,9 6,14 1,5 1,9 1,13 0,10 -2,19 -7,27 -5,8 -11,14 -20,19 -9,5 -19,7 -32,7 -7,0 -14,-1 -21,-2 -7,-1 -14,-4 -20,-7 -6,-3 -12,-7 -17,-13 -5,-5 -8,-12 -11,-19 -1,-4 -2,-8 -3,-11 -1,-4 -1,-7 -1,-10 0,-2 0,-3 -1,-4 -1,-1 -2,-2 -4,-2 -2,0 -3,1 -4,3 -1,2 -1,4 -1,8 0,2 0,5 -1,8 0,4 -1,8 -1,13 0,5 -1,11 -1,16 0,6 0,11 0,17 0,3 0,5 1,7 0,2 1,3 2,4 1,1 3,2 5,3 6,3 13,5 21,6 8,2 16,3 24,3 8,1 17,1 25,1z"/>
  <path id="123" class="fil0" d="M3060 2171c0,13 0,25 0,36 0,11 0,21 0,30 0,9 -1,16 -1,22 -1,6 -2,11 -4,15 -2,4 -5,6 -9,7 -2,0 -4,1 -6,1 -3,0 -5,0 -9,0 -3,0 -4,1 -5,1 -1,1 -1,2 -1,3 0,1 1,3 2,3 1,1 3,1 6,1 4,0 9,0 15,0 5,0 11,0 16,0 5,0 10,0 15,0 4,0 8,0 10,0 4,0 10,0 17,0 7,0 15,0 24,1 9,0 18,0 28,0 3,0 4,0 6,-1 1,-1 2,-2 2,-3 0,-1 0,-2 -2,-3 -1,-1 -3,-1 -5,-1 -2,0 -5,0 -7,0 -3,0 -5,0 -8,0 -3,0 -5,0 -7,-1 -4,-1 -7,-2 -10,-4 -2,-2 -4,-4 -5,-7 -1,-3 -2,-6 -2,-10 -1,-6 -1,-13 -1,-22 0,-9 -1,-19 -1,-30 0,-11 0,-23 0,-36l0 -167 54 1c13,0 23,2 30,4 7,2 12,5 16,9 3,4 5,7 5,11l0 4c0,3 1,5 1,6 1,1 2,2 3,2 1,0 2,-1 3,-2 1,-1 1,-3 1,-5 0,-3 0,-6 0,-11 0,-5 0,-9 0,-15 0,-5 0,-10 0,-14 0,-4 0,-8 0,-10 0,-3 0,-5 -1,-7 0,-1 -1,-2 -3,-2 -1,0 -2,0 -4,1 -2,0 -4,1 -8,1 -3,0 -7,1 -12,1 -5,0 -11,1 -17,1l-173 0c-7,0 -14,0 -22,0 -7,0 -14,-1 -21,-2 -5,-1 -9,-2 -12,-3 -3,-1 -5,-2 -6,-2 -1,0 -2,1 -3,2 -1,1 -1,3 -2,6 0,1 -1,3 -1,6 -1,3 -1,7 -2,11 -1,4 -2,9 -3,13 -1,5 -2,9 -2,12 -1,4 -1,6 -1,8 0,2 0,4 1,5 1,1 2,2 3,2 1,0 3,0 3,-1 1,-1 1,-2 2,-4 0,-2 1,-3 2,-6 1,-2 3,-5 5,-8 2,-3 5,-5 8,-7 3,-2 8,-3 13,-4 5,-1 12,-1 20,-1l64 -1 0 167z"/>
  <path id="1234" class="fil0" d="M3399 2186c1,0 2,0 3,1 1,0 1,1 2,2l33 83c1,3 1,5 0,6 -1,2 -2,3 -4,3 -2,0 -4,1 -4,1 -1,1 -1,2 -1,3 0,1 1,2 3,3 2,0 5,1 9,1 12,0 23,1 34,1 11,0 20,0 28,0 8,0 15,0 20,0 5,0 9,0 12,0 3,0 4,-1 5,-1 1,-1 1,-2 1,-3 0,-3 -2,-4 -6,-4 -2,0 -5,0 -7,0 -3,0 -5,-1 -9,-1 -2,0 -4,-1 -7,-2 -3,-1 -5,-3 -8,-6 -3,-3 -6,-7 -10,-13 -4,-6 -7,-13 -12,-22 -4,-9 -9,-20 -14,-32 -5,-13 -11,-26 -18,-41 -6,-15 -13,-30 -19,-45 -7,-15 -13,-30 -19,-45 -6,-15 -12,-28 -17,-40 -5,-12 -10,-23 -13,-31 -4,-9 -6,-14 -8,-18 -1,-3 -3,-6 -4,-8 -1,-2 -2,-3 -4,-4 -1,-1 -3,-1 -5,-1 -2,0 -4,1 -6,4 -2,3 -4,7 -6,13l-112 257c-3,7 -6,13 -9,18 -3,5 -7,9 -11,12 -4,3 -9,5 -16,6 -2,0 -4,0 -6,0 -2,0 -4,0 -6,0 -2,0 -3,0 -4,1 -1,1 -1,2 -1,3 0,2 1,3 2,3 1,1 3,1 6,1 8,0 15,0 22,0 7,0 13,0 18,-1 5,0 8,0 10,0 5,0 10,0 15,0 5,0 11,0 17,1 6,0 11,0 16,0 2,0 4,0 5,-1 1,-1 2,-2 2,-3 0,-1 0,-2 -1,-3 -1,-1 -3,-1 -5,-1l-6 0c-6,0 -11,-1 -13,-3 -3,-2 -4,-5 -4,-9 0,-3 0,-6 2,-11 1,-5 3,-9 5,-15l23 -56c0,-1 1,-2 1,-2 0,0 1,-1 3,-1l100 0zm-92 -23c-1,0 -1,0 -2,-1 0,0 0,-1 0,-2l41 -103c0,-1 0,-2 1,-3 0,-1 1,-1 2,-1 0,0 1,1 1,1 0,1 1,2 1,3l40 103c0,1 0,1 0,2 0,0 -1,1 -2,1l-82 0z"/>
  <path id="12345" class="fil0" d="M3628 2296c8,0 16,0 24,-1 8,-1 17,-3 25,-5 8,-2 16,-6 22,-11 10,-7 19,-15 25,-23 6,-8 11,-17 14,-26 3,-9 4,-18 4,-29 0,-12 -2,-24 -7,-36 -5,-11 -12,-22 -23,-33 -11,-11 -26,-21 -44,-31l-17 -10c-10,-5 -17,-10 -23,-15 -6,-5 -11,-9 -14,-13 -3,-4 -5,-8 -6,-13 -1,-4 -2,-9 -2,-13 0,-7 2,-13 5,-19 3,-5 7,-10 13,-14 5,-4 12,-7 19,-9 7,-2 14,-3 22,-3 9,0 17,1 23,3 6,2 11,5 15,8 4,3 7,6 9,8 3,4 5,7 7,11 2,4 3,7 3,10 1,3 1,5 1,6 0,5 1,7 4,7 2,0 3,-1 4,-3 1,-2 1,-5 1,-10 0,-11 0,-19 0,-26 0,-7 0,-12 1,-15 0,-4 0,-6 0,-8 0,-1 0,-3 -1,-3 -1,-1 -2,-1 -4,-2 -6,-2 -14,-3 -24,-5 -10,-1 -23,-2 -37,-2 -15,0 -29,2 -42,6 -13,4 -24,9 -34,17 -10,7 -18,16 -23,26 -6,10 -8,22 -8,34 0,12 2,23 6,34 4,11 11,21 21,30 10,10 23,20 40,29l25 15c9,6 17,11 23,16 6,5 10,10 13,15 3,5 5,9 6,14 1,5 1,9 1,13 0,10 -2,19 -7,27 -5,8 -11,14 -20,19 -9,5 -19,7 -32,7 -7,0 -14,-1 -21,-2 -7,-1 -14,-4 -20,-7 -6,-3 -12,-7 -17,-13 -5,-5 -8,-12 -11,-19 -1,-4 -2,-8 -3,-11 -1,-4 -1,-7 -1,-10 0,-2 0,-3 -1,-4 -1,-1 -2,-2 -4,-2 -2,0 -3,1 -4,3 -1,2 -1,4 -1,8 0,2 0,5 -1,8 0,4 -1,8 -1,13 0,5 -1,11 -1,16 0,6 0,11 0,17 0,3 0,5 1,7 0,2 1,3 2,4 1,1 3,2 5,3 6,3 13,5 21,6 8,2 16,3 24,3 8,1 17,1 25,1z"/>
  <path id="123456" class="fil0" d="M3999 2150c0,16 0,30 0,44 0,13 0,25 -1,36 0,11 -1,19 -2,26 -1,7 -2,13 -4,17 -2,4 -5,7 -10,8 -2,0 -5,1 -8,1 -3,0 -6,1 -10,1 -3,0 -5,0 -6,1 -1,1 -2,2 -2,3 0,2 1,3 3,4 2,1 4,1 7,1 5,0 10,0 16,0 6,0 12,0 17,0 6,0 11,0 16,0 5,0 9,0 11,0 4,0 11,0 18,0 8,0 17,0 26,1 10,0 20,0 31,0 3,0 5,0 7,-1 2,-1 3,-2 3,-4 0,-1 -1,-2 -2,-3 -1,-1 -3,-1 -6,-1 -3,0 -5,0 -8,0 -3,0 -6,0 -9,-1 -3,0 -5,-1 -8,-1 -5,-1 -8,-2 -11,-4 -3,-2 -5,-5 -6,-8 -1,-3 -2,-7 -2,-12 -1,-7 -1,-16 -1,-26 0,-11 0,-23 0,-36 0,-13 0,-28 0,-44l0 -85c0,-15 0,-27 0,-37 0,-10 0,-19 0,-26 0,-7 0,-13 0,-18 0,-5 0,-9 0,-12 0,-3 0,-7 0,-10 0,-8 2,-15 4,-19 3,-4 7,-7 13,-8 3,0 5,-1 8,-1 2,0 5,0 7,0 2,0 4,0 6,-1 1,-1 2,-2 2,-4 0,-1 -1,-2 -3,-3 -2,-1 -4,-1 -7,-1 -5,0 -10,0 -15,0 -6,0 -11,0 -17,0 -6,0 -11,0 -15,0 -5,0 -9,0 -12,0 -4,0 -8,0 -13,0 -5,0 -11,0 -17,0 -6,0 -12,0 -17,0 -6,0 -11,0 -16,0 -4,0 -7,0 -9,1 -2,1 -3,2 -3,3 0,2 1,3 2,4 1,1 3,1 6,1 3,0 6,0 9,0 3,0 6,1 9,2 5,1 9,4 12,8 3,4 4,11 5,19 0,3 0,6 0,10 0,3 0,7 0,12 0,5 0,11 0,18 0,7 0,16 0,26 0,10 0,23 0,37l0 85z"/>
  <path id="1234567" class="fil0" d="M4221 2066l1 0c2,2 6,6 13,13 6,7 14,15 23,24 9,10 19,20 30,31 11,11 22,22 34,34 11,11 23,22 35,33 12,11 23,22 34,33 11,11 22,21 31,30 10,9 18,17 24,23 2,2 5,4 8,6 3,2 6,3 10,3 2,0 3,-1 5,-3 1,-2 2,-5 2,-10l5 -260c0,-8 1,-14 2,-18 1,-5 3,-8 5,-10 2,-2 5,-4 9,-5 3,-1 5,-1 7,-1 2,0 4,0 6,0 2,0 4,0 5,-1 1,-1 2,-2 2,-3 0,-2 -1,-3 -3,-3 -2,0 -4,-1 -7,-1 -11,0 -19,0 -27,0 -7,0 -12,0 -15,0 -3,0 -8,0 -13,0 -6,0 -12,0 -19,0 -7,0 -14,0 -22,0 -3,0 -6,0 -8,1 -2,0 -3,2 -3,3 0,1 0,2 1,3 1,1 3,1 5,1 2,0 4,0 7,0 3,0 5,0 8,1 3,0 5,1 7,2 3,1 6,3 8,5 2,3 4,6 5,11 1,5 2,11 2,20l4 183 -2 0c-1,-1 -4,-4 -9,-9 -5,-5 -11,-11 -18,-18 -7,-7 -14,-14 -22,-22 -8,-8 -16,-16 -23,-23 -8,-8 -14,-14 -20,-20 -13,-12 -25,-24 -37,-36 -12,-12 -24,-24 -35,-34 -11,-11 -21,-21 -29,-29 -9,-9 -16,-16 -21,-21 -5,-5 -9,-9 -10,-10 -4,-4 -7,-7 -10,-10 -3,-3 -6,-4 -8,-4 -2,0 -4,1 -5,4 -1,3 -2,6 -2,10l-4 244c0,12 0,21 -1,28 -1,7 -2,12 -4,15 -2,3 -5,5 -8,6 -3,1 -6,1 -10,2 -3,0 -7,0 -10,0 -2,0 -4,0 -5,1 -1,1 -2,2 -2,3 0,2 1,3 3,4 2,1 4,1 7,1 7,0 14,0 21,0 6,0 12,0 16,-1 5,0 7,0 9,0 4,0 11,0 20,1 9,0 21,1 35,1 3,0 5,0 7,-1 2,-1 3,-2 3,-3 0,-1 -1,-2 -2,-3 -1,-1 -3,-1 -5,-1 -3,0 -7,0 -11,-1 -4,0 -8,-1 -11,-2 -3,-1 -5,-3 -7,-6 -2,-3 -4,-8 -5,-14 -1,-6 -2,-15 -2,-25l-5 -168z"/>
  <path id="12345678" class="fil0" d="M4663 2171c0,13 0,25 0,36 0,11 0,21 0,30 0,9 -1,16 -1,22 -1,6 -2,11 -4,15 -2,4 -5,6 -9,7 -2,0 -4,1 -6,1 -3,0 -5,0 -9,0 -3,0 -4,1 -5,1 -1,1 -1,2 -1,3 0,1 1,3 2,3 1,1 3,1 6,1 4,0 9,0 15,0 5,0 11,0 16,0 5,0 10,0 15,0 4,0 8,0 10,0 4,0 10,0 17,0 7,0 15,0 24,1 9,0 18,0 28,0 3,0 4,0 6,-1 1,-1 2,-2 2,-3 0,-1 0,-2 -2,-3 -1,-1 -3,-1 -5,-1 -2,0 -5,0 -7,0 -3,0 -5,0 -8,0 -3,0 -5,0 -7,-1 -4,-1 -7,-2 -10,-4 -2,-2 -4,-4 -5,-7 -1,-3 -2,-6 -2,-10 -1,-6 -1,-13 -1,-22 0,-9 -1,-19 -1,-30 0,-11 0,-23 0,-36l0 -167 54 1c13,0 23,2 30,4 7,2 12,5 16,9 3,4 5,7 5,11l0 4c0,3 1,5 1,6 1,1 2,2 3,2 1,0 2,-1 3,-2 1,-1 1,-3 1,-5 0,-3 0,-6 0,-11 0,-5 0,-9 0,-15 0,-5 0,-10 0,-14 0,-4 0,-8 0,-10 0,-3 0,-5 -1,-7 0,-1 -1,-2 -3,-2 -1,0 -2,0 -4,1 -2,0 -4,1 -8,1 -3,0 -7,1 -12,1 -5,0 -11,1 -17,1l-173 0c-7,0 -14,0 -22,0 -7,0 -14,-1 -21,-2 -5,-1 -9,-2 -12,-3 -3,-1 -5,-2 -6,-2 -1,0 -2,1 -3,2 -1,1 -1,3 -2,6 0,1 -1,3 -1,6 -1,3 -1,7 -2,11 -1,4 -2,9 -3,13 -1,5 -2,9 -2,12 -1,4 -1,6 -1,8 0,2 0,4 1,5 1,1 2,2 3,2 1,0 3,0 3,-1 1,-1 1,-2 2,-4 0,-2 1,-3 2,-6 1,-2 3,-5 5,-8 2,-3 5,-5 8,-7 3,-2 8,-3 13,-4 5,-1 12,-1 20,-1l64 -1 0 167z"/>
  <path id="123456789" class="fil0" d="M4914 2171c0,13 0,25 0,36 0,11 0,21 0,30 0,9 -1,16 -1,22 -1,6 -2,11 -4,15 -2,4 -5,6 -9,7 -2,0 -4,1 -7,1 -2,0 -5,0 -8,0 -3,0 -4,1 -5,1 -1,1 -1,2 -1,3 0,1 1,3 2,3 1,1 3,1 6,1 4,0 9,0 14,0 5,0 10,0 15,-1 5,0 10,0 14,0 4,0 8,0 10,0 6,0 14,0 22,0 8,0 17,0 28,1 10,0 22,1 35,1 13,0 27,0 43,0 5,0 9,0 12,0 3,0 5,-1 7,-3 2,-2 3,-4 4,-8 1,-2 1,-5 2,-9 1,-4 1,-8 2,-13 1,-5 1,-9 1,-13 0,-4 1,-7 1,-10 0,-2 0,-4 -1,-6 0,-2 -2,-3 -3,-3 -1,0 -2,0 -3,2 -1,1 -1,3 -2,5 -1,8 -3,15 -6,20 -3,5 -7,8 -12,11 -4,2 -8,3 -13,4 -5,1 -10,1 -14,1 -5,0 -9,0 -13,0 -14,0 -26,-1 -34,-3 -8,-2 -14,-5 -18,-10 -4,-5 -5,-12 -6,-21 0,-3 0,-7 0,-13 0,-5 0,-11 0,-17 0,-6 0,-12 0,-18 0,-5 0,-10 0,-14l0 -33c0,-1 0,-2 0,-3 0,-1 1,-1 2,-1 2,0 6,0 10,0 5,0 10,0 16,0 6,0 11,0 17,0 6,0 11,0 15,1 4,0 7,0 9,1 5,0 10,1 13,3 3,1 6,3 7,5 2,2 3,5 4,8 0,3 1,5 1,8 0,3 0,5 1,7 0,1 0,2 1,2 1,1 2,1 3,1 1,0 2,-1 3,-2 1,-1 1,-2 1,-4 0,-1 0,-3 0,-4 0,-1 0,-2 0,-4 0,-2 0,-5 0,-7 0,-3 0,-6 1,-8 0,-3 0,-5 1,-7 1,-7 1,-12 2,-16 0,-4 1,-7 1,-9 0,-2 0,-3 0,-4 0,-1 0,-2 -1,-3 -1,-1 -1,-1 -2,-1 -1,0 -2,1 -3,2 -1,1 -2,2 -4,4 -2,2 -5,3 -8,4 -3,1 -7,2 -12,2 -2,0 -6,0 -11,0 -5,0 -11,0 -17,0 -6,0 -13,0 -19,0 -6,0 -12,0 -17,0 -5,0 -9,0 -11,0 -1,0 -2,0 -2,-1 0,-1 -1,-2 -1,-3l0 -102c0,-1 0,-2 1,-3 0,-1 1,-1 2,-1 2,0 5,0 10,0 5,0 10,0 16,0 6,0 12,0 18,0 6,0 11,0 15,1 4,0 7,0 9,1 7,1 12,2 16,3 4,1 6,3 8,5 2,2 3,4 4,7 1,2 1,3 2,5 0,2 1,4 1,5 0,2 0,3 0,4 0,2 0,3 1,4 0,1 1,1 3,1 1,0 2,0 3,-1 1,-1 1,-2 1,-3 0,-1 1,-2 1,-3 0,-1 0,-3 1,-6 0,-3 0,-5 1,-8 0,-3 0,-6 1,-8 0,-2 0,-4 0,-5 0,-6 1,-11 1,-15 1,-4 1,-6 1,-8 0,-2 1,-3 1,-4 0,-1 0,-2 -1,-3 0,-1 -1,-1 -2,-1 -1,0 -2,0 -3,1 -1,0 -2,1 -4,1 -2,0 -4,1 -7,1 -3,0 -7,1 -11,1 -1,0 -5,0 -11,0 -6,0 -12,0 -20,0 -8,0 -16,0 -25,0 -9,0 -18,0 -26,0 -8,0 -15,0 -22,0 -6,0 -10,0 -13,0 -4,0 -10,0 -16,0 -7,0 -14,0 -22,0 -8,0 -16,0 -23,0 -3,0 -6,0 -7,1 -2,1 -3,2 -3,3 0,1 1,3 2,3 1,1 3,1 5,1 3,0 6,0 10,0 3,0 6,1 7,1 5,1 8,3 11,4 3,2 4,4 6,7 1,3 2,7 2,11 0,3 0,5 0,8 0,3 0,6 0,10 0,4 0,9 0,15 0,6 0,13 0,22 0,9 0,19 0,32l0 73z"/>
  <path id="12345678910" class="fil0" d="M5183 2171c0,13 0,25 0,36 0,11 0,21 0,30 0,9 -1,16 -1,22 -1,6 -2,11 -4,15 -2,4 -5,6 -9,7 -2,0 -4,1 -7,1 -2,0 -5,0 -8,0 -3,0 -4,1 -5,1 -1,1 -1,2 -1,3 0,1 1,3 2,3 1,1 3,1 6,1 4,0 9,0 14,0 5,0 10,0 15,0 5,0 10,0 14,0 4,0 7,0 9,0 2,0 5,0 10,0 5,0 10,0 17,0 6,0 13,0 20,0 7,0 14,0 20,0 3,0 5,0 6,-1 2,-1 2,-2 2,-3 0,-1 0,-2 -1,-3 -1,-1 -2,-1 -4,-1 -2,0 -4,0 -6,0 -2,0 -5,0 -7,0 -3,0 -5,0 -7,-1 -4,-1 -8,-2 -10,-4 -2,-2 -4,-4 -5,-7 -1,-3 -2,-7 -2,-11 -1,-6 -1,-13 -1,-22 0,-9 -1,-19 -1,-30 0,-11 0,-23 0,-36l0 -6c0,-1 0,-2 1,-3 1,-1 1,-1 2,-1l38 1c1,0 3,0 4,1 1,0 3,1 4,2 1,2 3,4 6,8 3,4 6,8 10,14 4,5 8,11 12,17 4,6 8,12 13,17 8,11 15,20 22,28 6,8 13,15 19,20 6,5 12,10 18,13 4,2 8,3 12,5 4,1 9,2 15,3 6,1 12,1 20,1l41 0c3,0 5,0 6,-1 1,-1 2,-2 2,-3 0,-1 0,-2 -1,-3 -1,-1 -2,-1 -4,-1 -2,0 -3,0 -5,0 -2,0 -3,0 -5,-1 -2,0 -5,-1 -10,-2 -4,-1 -9,-4 -15,-7 -6,-4 -13,-10 -21,-17 -13,-13 -27,-29 -42,-47 -15,-18 -32,-39 -51,-63 14,-11 25,-22 34,-32 9,-10 15,-20 19,-30 4,-10 6,-20 6,-30 0,-7 -1,-13 -3,-19 -2,-6 -4,-11 -8,-16 -3,-5 -6,-9 -10,-13 -3,-4 -7,-6 -10,-8 -8,-5 -16,-9 -25,-11 -9,-3 -18,-4 -28,-5 -10,-1 -19,-1 -28,-1 -3,0 -8,0 -14,0 -6,0 -12,0 -19,0 -7,0 -13,0 -19,0 -6,0 -11,0 -15,0 -2,0 -5,0 -10,0 -4,0 -9,0 -14,0 -5,0 -11,0 -17,0 -6,0 -12,0 -17,0 -3,0 -6,0 -7,1 -2,1 -3,2 -3,3 0,1 1,3 2,3 1,1 3,1 5,1 3,0 6,0 10,0 3,0 6,1 7,1 5,1 8,3 11,4 3,2 4,4 6,7 1,3 2,7 2,11 0,3 0,5 0,8 0,3 0,6 0,10 0,4 0,9 0,15 0,6 0,13 0,22 0,9 0,19 0,32l0 73zm54 -163c0,-2 0,-3 1,-4 1,-1 2,-2 3,-2 2,0 6,-1 10,-1 5,0 10,0 15,0 5,0 11,1 16,2 6,1 12,4 17,7 6,3 11,8 16,13 5,6 8,13 11,21 3,8 4,18 4,30 0,11 -2,21 -4,29 -3,8 -6,15 -10,20 -4,5 -9,9 -13,12 -2,2 -5,3 -7,4 -3,1 -5,2 -9,2 -4,0 -8,1 -14,1 -5,0 -11,0 -17,-1 -6,-1 -11,-2 -16,-3 -1,-1 -2,-2 -3,-3 -1,-1 -1,-3 -1,-5l0 -123z"/>
  <path id="1234567891011" class="fil0" d="M5538 2066l1 0c2,2 6,6 13,13 6,7 14,15 23,24 9,10 19,20 30,31 11,11 22,22 34,34 11,11 23,22 35,33 12,11 23,22 34,33 11,11 22,21 31,30 10,9 18,17 24,23 2,2 5,4 8,6 3,2 6,3 10,3 2,0 3,-1 5,-3 1,-2 2,-5 2,-10l5 -260c0,-8 1,-14 2,-18 1,-5 3,-8 5,-10 2,-2 5,-4 9,-5 3,-1 5,-1 7,-1 2,0 4,0 6,0 2,0 4,0 5,-1 1,-1 2,-2 2,-3 0,-2 -1,-3 -3,-3 -2,0 -4,-1 -7,-1 -11,0 -19,0 -27,0 -7,0 -12,0 -15,0 -3,0 -8,0 -13,0 -6,0 -12,0 -19,0 -7,0 -14,0 -22,0 -3,0 -6,0 -8,1 -2,0 -3,2 -3,3 0,1 0,2 1,3 1,1 3,1 5,1 2,0 4,0 7,0 3,0 5,0 8,1 3,0 5,1 7,2 3,1 6,3 8,5 2,3 4,6 5,11 1,5 2,11 2,20l4 183 -2 0c-1,-1 -4,-4 -9,-9 -5,-5 -11,-11 -18,-18 -7,-7 -14,-14 -22,-22 -8,-8 -16,-16 -23,-23 -8,-8 -14,-14 -20,-20 -13,-12 -25,-24 -37,-36 -12,-12 -24,-24 -35,-34 -11,-11 -21,-21 -29,-29 -9,-9 -16,-16 -21,-21 -5,-5 -9,-9 -10,-10 -4,-4 -7,-7 -10,-10 -3,-3 -6,-4 -8,-4 -2,0 -4,1 -5,4 -1,3 -2,6 -2,10l-4 244c0,12 0,21 -1,28 -1,7 -2,12 -4,15 -2,3 -5,5 -8,6 -3,1 -6,1 -10,2 -3,0 -7,0 -10,0 -2,0 -4,0 -5,1 -1,1 -2,2 -2,3 0,2 1,3 3,4 2,1 4,1 7,1 7,0 14,0 21,0 6,0 12,0 16,-1 5,0 7,0 9,0 4,0 11,0 20,1 9,0 21,1 35,1 3,0 5,0 7,-1 2,-1 3,-2 3,-3 0,-1 -1,-2 -2,-3 -1,-1 -3,-1 -5,-1 -3,0 -7,0 -11,-1 -4,0 -8,-1 -11,-2 -3,-1 -5,-3 -7,-6 -2,-3 -4,-8 -5,-14 -1,-6 -2,-15 -2,-25l-5 -168z"/>
  <path id="123456789101112" class="fil0" d="M6042 2186c1,0 2,0 3,1 1,0 1,1 2,2l33 83c1,3 1,5 0,6 -1,2 -2,3 -4,3 -2,0 -4,1 -4,1 -1,1 -1,2 -1,3 0,1 1,2 3,3 2,0 5,1 9,1 12,0 23,1 34,1 11,0 20,0 28,0 8,0 15,0 20,0 5,0 9,0 12,0 3,0 4,-1 5,-1 1,-1 1,-2 1,-3 0,-3 -2,-4 -6,-4 -2,0 -5,0 -7,0 -3,0 -5,-1 -9,-1 -2,0 -4,-1 -7,-2 -3,-1 -5,-3 -8,-6 -3,-3 -6,-7 -10,-13 -4,-6 -7,-13 -12,-22 -4,-9 -9,-20 -14,-32 -5,-13 -11,-26 -18,-41 -6,-15 -13,-30 -19,-45 -7,-15 -13,-30 -19,-45 -6,-15 -12,-28 -17,-40 -5,-12 -10,-23 -13,-31 -4,-9 -6,-14 -8,-18 -1,-3 -3,-6 -4,-8 -1,-2 -2,-3 -4,-4 -1,-1 -3,-1 -5,-1 -2,0 -4,1 -6,4 -2,3 -4,7 -6,13l-112 257c-3,7 -6,13 -9,18 -3,5 -7,9 -11,12 -4,3 -9,5 -16,6 -2,0 -4,0 -6,0 -2,0 -4,0 -6,0 -2,0 -3,0 -4,1 -1,1 -1,2 -1,3 0,2 1,3 2,3 1,1 3,1 6,1 8,0 15,0 22,0 7,0 13,0 18,-1 5,0 8,0 10,0 5,0 10,0 15,0 5,0 11,0 17,1 6,0 11,0 16,0 2,0 4,0 5,-1 1,-1 2,-2 2,-3 0,-1 0,-2 -1,-3 -1,-1 -3,-1 -5,-1l-6 0c-6,0 -11,-1 -13,-3 -3,-2 -4,-5 -4,-9 0,-3 0,-6 2,-11 1,-5 3,-9 5,-15l23 -56c0,-1 1,-2 1,-2 0,0 1,-1 3,-1l100 0zm-92 -23c-1,0 -1,0 -2,-1 0,0 0,-1 0,-2l41 -103c0,-1 0,-2 1,-3 0,-1 1,-1 2,-1 0,0 1,1 1,1 0,1 1,2 1,3l40 103c0,1 0,1 0,2 0,0 -1,1 -2,1l-82 0z"/>
  <path id="12345678910111213" class="fil0" d="M6255 2171c0,13 0,25 0,36 0,11 0,21 0,30 0,9 -1,16 -1,22 -1,6 -2,11 -4,15 -2,4 -5,6 -9,7 -2,0 -4,1 -6,1 -3,0 -5,0 -9,0 -3,0 -4,1 -5,1 -1,1 -1,2 -1,3 0,1 1,3 2,3 1,1 3,1 6,1 4,0 9,0 15,0 5,0 11,0 16,0 5,0 10,0 15,0 4,0 8,0 10,0 4,0 10,0 17,0 7,0 15,0 24,1 9,0 18,0 28,0 3,0 4,0 6,-1 1,-1 2,-2 2,-3 0,-1 0,-2 -2,-3 -1,-1 -3,-1 -5,-1 -2,0 -5,0 -7,0 -3,0 -5,0 -8,0 -3,0 -5,0 -7,-1 -4,-1 -7,-2 -10,-4 -2,-2 -4,-4 -5,-7 -1,-3 -2,-6 -2,-10 -1,-6 -1,-13 -1,-22 0,-9 -1,-19 -1,-30 0,-11 0,-23 0,-36l0 -167 54 1c13,0 23,2 30,4 7,2 12,5 16,9 3,4 5,7 5,11l0 4c0,3 1,5 1,6 1,1 2,2 3,2 1,0 2,-1 3,-2 1,-1 1,-3 1,-5 0,-3 0,-6 0,-11 0,-5 0,-9 0,-15 0,-5 0,-10 0,-14 0,-4 0,-8 0,-10 0,-3 0,-5 -1,-7 0,-1 -1,-2 -3,-2 -1,0 -2,0 -4,1 -2,0 -4,1 -8,1 -3,0 -7,1 -12,1 -5,0 -11,1 -17,1l-173 0c-7,0 -14,0 -22,0 -7,0 -14,-1 -21,-2 -5,-1 -9,-2 -12,-3 -3,-1 -5,-2 -6,-2 -1,0 -2,1 -3,2 -1,1 -1,3 -2,6 0,1 -1,3 -1,6 -1,3 -1,7 -2,11 -1,4 -2,9 -3,13 -1,5 -2,9 -2,12 -1,4 -1,6 -1,8 0,2 0,4 1,5 1,1 2,2 3,2 1,0 3,0 3,-1 1,-1 1,-2 2,-4 0,-2 1,-3 2,-6 1,-2 3,-5 5,-8 2,-3 5,-5 8,-7 3,-2 8,-3 13,-4 5,-1 12,-1 20,-1l64 -1 0 167z"/>
  <path id="1234567891011121314" class="fil0" d="M6505 2171c0,13 0,26 0,37 0,11 0,22 0,31 0,9 -1,16 -1,22 -1,6 -2,11 -4,14 -2,3 -5,5 -9,6 -2,0 -4,1 -7,1 -2,0 -5,0 -8,0 -3,0 -4,1 -5,1 -1,1 -1,2 -1,3 0,1 1,3 2,3 1,1 3,1 6,1 4,0 9,0 15,0 5,0 11,0 16,0 5,0 10,0 15,0 4,0 8,0 10,0 4,0 10,0 17,0 7,0 15,0 24,1 9,0 18,0 28,0 3,0 4,0 6,-1 2,-1 2,-2 2,-3 0,-1 0,-2 -2,-3 -1,-1 -3,-1 -5,-1 -2,0 -5,0 -7,0 -3,0 -5,0 -8,0 -3,0 -5,0 -7,-1 -4,-1 -7,-2 -10,-3 -2,-2 -4,-4 -5,-6 -1,-3 -2,-6 -2,-10 -1,-6 -1,-13 -1,-22 0,-9 0,-19 0,-31 0,-11 0,-24 0,-37l0 -73c0,-12 0,-23 0,-32 0,-9 0,-16 0,-22 0,-6 0,-11 0,-15 0,-4 0,-7 0,-10 0,-3 0,-6 0,-8 0,-7 2,-12 4,-16 2,-3 6,-5 12,-6 2,0 5,-1 6,-1 2,0 4,0 6,0 2,0 4,0 5,-1 1,-1 2,-2 2,-4 0,-1 -1,-2 -2,-3 -2,-1 -4,-1 -6,-1 -4,0 -9,0 -14,0 -5,0 -10,0 -16,0 -5,0 -10,0 -14,0 -4,0 -8,0 -11,0 -3,0 -7,0 -12,0 -5,0 -10,0 -15,0 -5,0 -11,0 -16,0 -5,0 -10,0 -14,0 -3,0 -6,0 -8,1 -2,0 -3,1 -3,3 0,2 1,3 2,4 1,1 3,1 5,1 3,0 5,0 8,0 3,0 5,1 8,2 3,1 6,2 8,4 2,2 4,4 5,7 1,3 2,7 2,11 0,3 0,5 0,8 0,3 0,6 0,10 0,4 0,9 0,15 0,6 0,13 0,22 0,9 0,19 0,32l0 73z"/>
  <path id="123456789101112131415" class="fil0" d="M6826 2296c22,0 42,-3 61,-8 19,-6 35,-13 50,-24 15,-10 27,-22 37,-36 10,-14 18,-29 23,-46 5,-17 8,-35 8,-54 0,-24 -4,-45 -12,-64 -8,-19 -20,-35 -35,-49 -15,-13 -34,-24 -55,-31 -21,-7 -46,-11 -73,-11 -22,0 -41,2 -58,7 -17,5 -32,11 -46,19 -13,8 -25,17 -34,28 -9,11 -17,22 -23,34 -6,12 -11,24 -13,37 -3,12 -4,25 -4,36 0,12 1,25 4,37 3,13 7,25 13,37 6,12 14,23 23,34 9,10 21,20 33,28 13,8 28,14 44,19 17,5 35,7 56,7zm17 -22c-20,0 -38,-4 -54,-12 -16,-8 -29,-19 -40,-32 -11,-14 -20,-30 -26,-48 -6,-18 -9,-38 -9,-59 0,-20 2,-38 6,-52 4,-15 10,-27 17,-36 7,-10 15,-17 24,-23 9,-6 18,-10 28,-12 10,-2 19,-3 29,-3 17,0 33,3 48,10 15,7 28,17 39,29 11,13 20,28 26,46 6,18 10,39 10,61 0,19 -2,36 -5,50 -3,14 -8,26 -13,36 -6,10 -12,17 -19,24 -7,6 -14,11 -21,14 -7,3 -14,5 -21,6 -7,1 -13,2 -18,2z"/>
  <path id="12345678910111213141516" class="fil0" d="M7106 2066l1 0c2,2 6,6 13,13 6,7 14,15 23,24 9,10 19,20 30,31 11,11 22,22 34,34 11,11 23,22 35,33 12,11 23,22 34,33 11,11 22,21 31,30 10,9 18,17 24,23 2,2 5,4 8,6 3,2 6,3 10,3 2,0 3,-1 5,-3 1,-2 2,-5 2,-10l5 -260c0,-8 1,-14 2,-18 1,-5 3,-8 5,-10 2,-2 5,-4 9,-5 3,-1 5,-1 7,-1 2,0 4,0 6,0 2,0 4,0 5,-1 1,-1 2,-2 2,-3 0,-2 -1,-3 -3,-3 -2,0 -4,-1 -7,-1 -11,0 -19,0 -27,0 -7,0 -12,0 -15,0 -3,0 -8,0 -13,0 -6,0 -12,0 -19,0 -7,0 -14,0 -22,0 -3,0 -6,0 -8,1 -2,0 -3,2 -3,3 0,1 0,2 1,3 1,1 3,1 5,1 2,0 4,0 7,0 3,0 5,0 8,1 3,0 5,1 7,2 3,1 6,3 8,5 2,3 4,6 5,11 1,5 2,11 2,20l4 183 -2 0c-1,-1 -4,-4 -9,-9 -5,-5 -11,-11 -18,-18 -7,-7 -14,-14 -22,-22 -8,-8 -16,-16 -23,-23 -8,-8 -14,-14 -20,-20 -13,-12 -25,-24 -37,-36 -12,-12 -24,-24 -35,-34 -11,-11 -21,-21 -29,-29 -9,-9 -16,-16 -21,-21 -5,-5 -9,-9 -10,-10 -4,-4 -7,-7 -10,-10 -3,-3 -6,-4 -8,-4 -2,0 -4,1 -5,4 -1,3 -2,6 -2,10l-4 244c0,12 0,21 -1,28 -1,7 -2,12 -4,15 -2,3 -5,5 -8,6 -3,1 -6,1 -10,2 -3,0 -7,0 -10,0 -2,0 -4,0 -5,1 -1,1 -2,2 -2,3 0,2 1,3 3,4 2,1 4,1 7,1 7,0 14,0 21,0 6,0 12,0 16,-1 5,0 7,0 9,0 4,0 11,0 20,1 9,0 21,1 35,1 3,0 5,0 7,-1 2,-1 3,-2 3,-3 0,-1 -1,-2 -2,-3 -1,-1 -3,-1 -5,-1 -3,0 -7,0 -11,-1 -4,0 -8,-1 -11,-2 -3,-1 -5,-3 -7,-6 -2,-3 -4,-8 -5,-14 -1,-6 -2,-15 -2,-25l-5 -168z"/>
  <path id="1234567891011121314151617" class="fil0" d="M7611 2186c1,0 2,0 3,1 1,0 1,1 2,2l33 83c1,3 1,5 0,6 -1,2 -2,3 -4,3 -2,0 -4,1 -4,1 -1,1 -1,2 -1,3 0,1 1,2 3,3 2,0 5,1 9,1 12,0 23,1 34,1 11,0 20,0 28,0 8,0 15,0 20,0 5,0 9,0 12,0 3,0 4,-1 5,-1 1,-1 1,-2 1,-3 0,-3 -2,-4 -6,-4 -2,0 -5,0 -7,0 -3,0 -5,-1 -9,-1 -2,0 -4,-1 -7,-2 -3,-1 -5,-3 -8,-6 -3,-3 -6,-7 -10,-13 -4,-6 -7,-13 -12,-22 -4,-9 -9,-20 -14,-32 -5,-13 -11,-26 -18,-41 -6,-15 -13,-30 -19,-45 -7,-15 -13,-30 -19,-45 -6,-15 -12,-28 -17,-40 -5,-12 -10,-23 -13,-31 -4,-9 -6,-14 -8,-18 -1,-3 -3,-6 -4,-8 -1,-2 -2,-3 -4,-4 -1,-1 -3,-1 -5,-1 -2,0 -4,1 -6,4 -2,3 -4,7 -6,13l-112 257c-3,7 -6,13 -9,18 -3,5 -7,9 -11,12 -4,3 -9,5 -16,6 -2,0 -4,0 -6,0 -2,0 -4,0 -6,0 -2,0 -3,0 -4,1 -1,1 -1,2 -1,3 0,2 1,3 2,3 1,1 3,1 6,1 8,0 15,0 22,0 7,0 13,0 18,-1 5,0 8,0 10,0 5,0 10,0 15,0 5,0 11,0 17,1 6,0 11,0 16,0 2,0 4,0 5,-1 1,-1 2,-2 2,-3 0,-1 0,-2 -1,-3 -1,-1 -3,-1 -5,-1l-6 0c-6,0 -11,-1 -13,-3 -3,-2 -4,-5 -4,-9 0,-3 0,-6 2,-11 1,-5 3,-9 5,-15l23 -56c0,-1 1,-2 1,-2 0,0 1,-1 3,-1l100 0zm-92 -23c-1,0 -1,0 -2,-1 0,0 0,-1 0,-2l41 -103c0,-1 0,-2 1,-3 0,-1 1,-1 2,-1 0,0 1,1 1,1 0,1 1,2 1,3l40 103c0,1 0,1 0,2 0,0 -1,1 -2,1l-82 0z"/>
  <path id="123456789101112131415161718" class="fil0" d="M7856 2098c0,-12 0,-23 0,-32 0,-9 0,-16 0,-22 0,-6 0,-11 0,-15 0,-4 0,-7 0,-10 0,-3 0,-6 0,-8 0,-7 2,-12 4,-16 2,-3 6,-5 12,-6 3,0 5,-1 8,-1 3,0 6,0 8,0 3,0 5,0 6,-1 1,-1 2,-2 2,-3 0,-1 -1,-2 -2,-3 -1,-1 -4,-1 -7,-1 -4,0 -9,0 -15,0 -6,0 -12,0 -18,0 -6,0 -12,0 -17,0 -5,0 -9,0 -12,0 -3,0 -7,0 -11,0 -5,0 -10,0 -15,0 -5,0 -11,0 -16,0 -6,0 -11,0 -16,0 -3,0 -5,0 -7,1 -2,1 -2,2 -2,3 0,3 2,4 7,4 3,0 5,0 8,0 3,0 5,1 6,1 5,1 8,3 11,4 3,2 4,4 6,7 1,3 2,7 2,11 0,3 0,5 0,8 0,3 0,6 0,10 0,4 0,9 0,15 0,6 0,13 0,22 0,9 0,19 0,32l0 73c0,13 0,25 0,36 0,11 0,21 0,30 0,9 -1,16 -1,22 -1,6 -2,11 -4,15 -2,4 -5,6 -9,7 -2,0 -4,1 -7,1 -2,0 -5,0 -8,0 -3,0 -4,1 -5,1 -1,1 -1,2 -1,3 0,1 1,3 2,3 1,1 3,1 6,1 4,0 9,0 14,0 5,0 10,0 15,-1 5,0 10,0 14,0 4,0 8,0 10,0 9,0 18,0 27,0 9,0 19,0 30,1 11,0 22,1 35,1 13,0 27,0 42,0 7,0 13,0 16,-1 4,-1 6,-2 7,-3 1,-2 3,-4 3,-7 1,-3 2,-7 2,-12 1,-5 1,-10 2,-15 1,-5 1,-9 1,-13 0,-4 0,-6 0,-8 0,-3 0,-5 -1,-6 -1,-2 -2,-3 -3,-3 -2,0 -3,1 -4,2 -1,1 -1,3 -1,5 0,3 -1,6 -2,9 -1,3 -2,6 -4,9 -2,3 -3,5 -5,7 -4,4 -8,6 -13,8 -5,2 -10,3 -17,3 -6,0 -13,1 -21,1 -11,0 -20,0 -28,-1 -8,-1 -14,-1 -18,-3 -5,-1 -8,-3 -11,-5 -3,-3 -5,-7 -6,-14 -1,-7 -2,-16 -2,-28 0,-12 0,-27 0,-44l0 -73z"/>
  <path id="12345678910111213141516171819" class="fil0" d="M2472 2770c-1,6 -2,11 -3,17 -1,5 -3,10 -6,14 -3,4 -6,6 -11,8 -4,1 -6,1 -9,1 -2,0 -4,0 -6,0 -2,0 -4,0 -6,1 -1,0 -2,1 -2,3 0,2 1,4 3,4 2,1 4,1 6,1 4,0 8,0 13,0 5,0 9,0 14,0 5,0 9,0 12,0 4,0 7,0 9,0 3,0 7,0 13,0 5,0 11,0 18,1 7,0 13,0 20,0 4,0 7,0 9,-1 2,-1 3,-2 3,-4 0,-1 -1,-2 -2,-3 -1,-1 -3,-1 -5,-1 -2,0 -5,0 -9,0 -3,0 -7,-1 -12,-2 -4,-1 -8,-3 -10,-5 -3,-2 -4,-6 -4,-11 0,-4 0,-7 0,-11 0,-4 1,-8 1,-12l25 -189 2 0c3,7 7,15 11,24 4,8 8,17 13,26 4,9 8,17 12,24 4,8 7,14 9,19 3,5 4,9 5,11 1,2 3,6 5,11 3,5 6,11 9,18 4,7 7,14 11,22 4,8 8,15 12,23 4,7 7,14 11,20 3,6 6,11 8,15 4,7 7,13 10,18 3,4 5,7 7,7 1,0 3,-1 4,-2 1,-1 3,-4 5,-8 2,-4 5,-10 9,-17l106 -216 2 0 29 211c1,7 1,12 1,15 -1,3 -2,5 -3,6 -2,1 -3,1 -4,2 -1,1 -1,2 -1,3 0,1 1,3 3,3 2,1 6,1 11,2 3,0 8,0 13,1 5,0 12,0 18,1 7,0 14,0 21,0 7,0 14,0 20,0 6,0 12,0 16,0 5,0 8,0 10,0 3,0 6,0 9,-1 2,-1 4,-2 4,-4 0,-1 -1,-2 -2,-3 -1,0 -3,-1 -5,-1 -3,0 -7,0 -12,-1 -5,-1 -11,-2 -18,-4 -5,-1 -9,-4 -12,-8 -3,-4 -5,-9 -7,-16 -2,-7 -3,-15 -5,-25l-44 -297c-1,-5 -2,-9 -3,-11 -1,-3 -3,-4 -5,-4 -2,0 -4,1 -5,3 -2,2 -3,5 -5,9l-132 273 -132 -270c-2,-4 -4,-7 -5,-10 -1,-2 -3,-4 -4,-4 -1,-1 -2,-1 -4,-1 -2,0 -4,1 -5,3 -1,2 -3,5 -3,9l-48 312z"/>
  <path id="1234567891011121314151617181920" class="fil0" d="M3122 2714c1,0 2,0 3,1 1,0 1,1 2,2l33 83c1,3 1,5 0,6 -1,2 -2,3 -4,3 -2,0 -4,1 -4,1 -1,1 -1,2 -1,3 0,1 1,2 3,3 2,0 5,1 9,1 12,0 23,1 34,1 11,0 20,0 28,0 8,0 15,0 20,0 5,0 9,0 12,0 3,0 4,-1 5,-1 1,-1 1,-2 1,-3 0,-3 -2,-4 -6,-4 -2,0 -5,0 -7,0 -3,0 -5,-1 -9,-1 -2,0 -4,-1 -7,-2 -3,-1 -5,-3 -8,-6 -3,-3 -6,-7 -10,-13 -4,-6 -7,-13 -12,-22 -4,-9 -9,-20 -14,-32 -5,-13 -11,-26 -18,-41 -6,-15 -13,-30 -19,-45 -7,-15 -13,-30 -19,-45 -6,-15 -12,-28 -17,-40 -5,-12 -10,-23 -13,-31 -4,-9 -6,-14 -8,-18 -1,-3 -3,-6 -4,-8 -1,-2 -2,-3 -4,-4 -1,-1 -3,-1 -5,-1 -2,0 -4,1 -6,4 -2,3 -4,7 -6,13l-112 257c-3,7 -6,13 -9,18 -3,5 -7,9 -11,12 -4,3 -9,5 -16,6 -2,0 -4,0 -6,0 -2,0 -4,0 -6,0 -2,0 -3,0 -4,1 -1,1 -1,2 -1,3 0,2 1,3 2,3 1,1 3,1 6,1 8,0 15,0 22,0 7,0 13,0 18,-1 5,0 8,0 10,0 5,0 10,0 15,0 5,0 11,0 17,1 6,0 11,0 16,0 2,0 4,0 5,-1 1,-1 2,-2 2,-3 0,-1 0,-2 -1,-3 -1,-1 -3,-1 -5,-1l-6 0c-6,0 -11,-1 -13,-3 -3,-2 -4,-5 -4,-9 0,-3 0,-6 2,-11 1,-5 3,-9 5,-15l23 -56c0,-1 1,-2 1,-2 0,0 1,-1 3,-1l100 0zm-92 -23c-1,0 -1,0 -2,-1 0,0 0,-1 0,-2l41 -103c0,-1 0,-2 1,-3 0,-1 1,-1 2,-1 0,0 1,1 1,1 0,1 1,2 1,3l40 103c0,1 0,1 0,2 0,0 -1,1 -2,1l-82 0z"/>
  <path id="123456789101112131415161718192021" class="fil0" d="M3310 2699c0,13 0,25 0,36 0,11 0,21 0,30 0,9 -1,16 -1,22 -1,6 -2,11 -4,15 -2,4 -5,6 -9,7 -2,0 -4,1 -7,1 -2,0 -5,0 -8,0 -3,0 -4,1 -5,1 -1,1 -1,2 -1,3 0,1 1,3 2,3 1,1 3,1 6,1 4,0 9,0 14,0 5,0 10,0 15,0 5,0 10,0 14,0 4,0 7,0 9,0 2,0 5,0 10,0 5,0 10,0 17,0 6,0 13,0 20,0 7,0 14,0 20,0 3,0 5,0 6,-1 2,-1 2,-2 2,-3 0,-1 0,-2 -1,-3 -1,-1 -2,-1 -4,-1 -2,0 -4,0 -6,0 -2,0 -5,0 -7,0 -3,0 -5,0 -7,-1 -4,-1 -8,-2 -10,-4 -2,-2 -4,-4 -5,-7 -1,-3 -2,-7 -2,-11 -1,-6 -1,-13 -1,-22 0,-9 -1,-19 -1,-30 0,-11 0,-23 0,-36l0 -6c0,-1 0,-2 1,-3 1,-1 1,-1 2,-1l38 1c1,0 3,0 4,1 1,0 3,1 4,2 1,2 3,4 6,8 3,4 6,8 10,14 4,5 8,11 12,17 4,6 8,12 13,17 8,11 15,20 22,28 6,8 13,15 19,20 6,5 12,10 18,13 4,2 8,3 12,5 4,1 9,2 15,3 6,1 12,1 20,1l41 0c3,0 5,0 6,-1 1,-1 2,-2 2,-3 0,-1 0,-2 -1,-3 -1,-1 -2,-1 -4,-1 -2,0 -3,0 -5,0 -2,0 -3,0 -5,-1 -2,0 -5,-1 -10,-2 -4,-1 -9,-4 -15,-7 -6,-4 -13,-10 -21,-17 -13,-13 -27,-29 -42,-47 -15,-18 -32,-39 -51,-63 14,-11 25,-22 34,-32 9,-10 15,-20 19,-30 4,-10 6,-20 6,-30 0,-7 -1,-13 -3,-19 -2,-6 -4,-11 -8,-16 -3,-5 -6,-9 -10,-13 -3,-4 -7,-6 -10,-8 -8,-5 -16,-9 -25,-11 -9,-3 -18,-4 -28,-5 -10,-1 -19,-1 -28,-1 -3,0 -8,0 -14,0 -6,0 -12,0 -19,0 -7,0 -13,0 -19,0 -6,0 -11,0 -15,0 -2,0 -5,0 -10,0 -4,0 -9,0 -14,0 -5,0 -11,0 -17,0 -6,0 -12,0 -17,0 -3,0 -6,0 -7,1 -2,1 -3,2 -3,3 0,1 1,3 2,3 1,1 3,1 5,1 3,0 6,0 10,0 3,0 6,1 7,1 5,1 8,3 11,4 3,2 4,4 6,7 1,3 2,7 2,11 0,3 0,5 0,8 0,3 0,6 0,10 0,4 0,9 0,15 0,6 0,13 0,22 0,9 0,19 0,32l0 73zm54 -163c0,-2 0,-3 1,-4 1,-1 2,-2 3,-2 2,0 6,-1 10,-1 5,0 10,0 15,0 5,0 11,1 16,2 6,1 12,4 17,7 6,3 11,8 16,13 5,6 8,13 11,21 3,8 4,18 4,30 0,11 -2,21 -4,29 -3,8 -6,15 -10,20 -4,5 -9,9 -13,12 -2,2 -5,3 -7,4 -3,1 -5,2 -9,2 -4,0 -8,1 -14,1 -5,0 -11,0 -17,-1 -6,-1 -11,-2 -16,-3 -1,-1 -2,-2 -3,-3 -1,-1 -1,-3 -1,-5l0 -123z"/>
  <path id="12345678910111213141516171819202122" class="fil0" d="M3642 2699c0,13 0,26 0,37 0,11 0,22 0,31 0,9 -1,16 -1,22 -1,6 -2,11 -4,14 -2,3 -5,5 -9,6 -2,0 -4,1 -7,1 -2,0 -5,0 -8,0 -3,0 -4,1 -5,1 -1,1 -1,2 -1,3 0,1 1,3 2,3 1,1 3,1 6,1 4,0 9,0 15,0 5,0 11,0 16,0 5,0 10,0 15,0 4,0 8,0 10,0 4,0 10,0 17,0 7,0 15,0 24,1 9,0 18,0 28,0 3,0 4,0 6,-1 2,-1 2,-2 2,-3 0,-1 0,-2 -2,-3 -1,-1 -3,-1 -5,-1 -2,0 -5,0 -7,0 -3,0 -5,0 -8,0 -3,0 -5,0 -7,-1 -4,-1 -7,-2 -10,-3 -2,-2 -4,-4 -5,-6 -1,-3 -2,-6 -2,-10 -1,-6 -1,-13 -1,-22 0,-9 0,-19 0,-31 0,-11 0,-24 0,-37l0 -73c0,-12 0,-23 0,-32 0,-9 0,-16 0,-22 0,-6 0,-11 0,-15 0,-4 0,-7 0,-10 0,-3 0,-6 0,-8 0,-7 2,-12 4,-16 2,-3 6,-5 12,-6 2,0 5,-1 6,-1 2,0 4,0 6,0 2,0 4,0 5,-1 1,-1 2,-2 2,-4 0,-1 -1,-2 -2,-3 -2,-1 -4,-1 -6,-1 -4,0 -9,0 -14,0 -5,0 -10,0 -16,0 -5,0 -10,0 -14,0 -4,0 -8,0 -11,0 -3,0 -7,0 -12,0 -5,0 -10,0 -15,0 -5,0 -11,0 -16,0 -5,0 -10,0 -14,0 -3,0 -6,0 -8,1 -2,0 -3,1 -3,3 0,2 1,3 2,4 1,1 3,1 5,1 3,0 5,0 8,0 3,0 5,1 8,2 3,1 6,2 8,4 2,2 4,4 5,7 1,3 2,7 2,11 0,3 0,5 0,8 0,3 0,6 0,10 0,4 0,9 0,15 0,6 0,13 0,22 0,9 0,19 0,32l0 73z"/>
  <path id="1234567891011121314151617181920212223" class="fil0" d="M3896 2699c0,13 0,25 0,36 0,11 0,21 0,30 0,9 -1,16 -1,22 -1,6 -2,11 -4,15 -2,4 -5,6 -9,7 -2,0 -4,1 -6,1 -3,0 -5,0 -9,0 -3,0 -4,1 -5,1 -1,1 -1,2 -1,3 0,1 1,3 2,3 1,1 3,1 6,1 4,0 9,0 15,0 5,0 11,0 16,0 5,0 10,0 15,0 4,0 8,0 10,0 4,0 10,0 17,0 7,0 15,0 24,1 9,0 18,0 28,0 3,0 4,0 6,-1 1,-1 2,-2 2,-3 0,-1 0,-2 -2,-3 -1,-1 -3,-1 -5,-1 -2,0 -5,0 -7,0 -3,0 -5,0 -8,0 -3,0 -5,0 -7,-1 -4,-1 -7,-2 -10,-4 -2,-2 -4,-4 -5,-7 -1,-3 -2,-6 -2,-10 -1,-6 -1,-13 -1,-22 0,-9 -1,-19 -1,-30 0,-11 0,-23 0,-36l0 -167 54 1c13,0 23,2 30,4 7,2 12,5 16,9 3,4 5,7 5,11l0 4c0,3 1,5 1,6 1,1 2,2 3,2 1,0 2,-1 3,-2 1,-1 1,-3 1,-5 0,-3 0,-6 0,-11 0,-5 0,-9 0,-15 0,-5 0,-10 0,-14 0,-4 0,-8 0,-10 0,-3 0,-5 -1,-7 0,-1 -1,-2 -3,-2 -1,0 -2,0 -4,1 -2,0 -4,1 -8,1 -3,0 -7,1 -12,1 -5,0 -11,1 -17,1l-173 0c-7,0 -14,0 -22,0 -7,0 -14,-1 -21,-2 -5,-1 -9,-2 -12,-3 -3,-1 -5,-2 -6,-2 -1,0 -2,1 -3,2 -1,1 -1,3 -2,6 0,1 -1,3 -1,6 -1,3 -1,7 -2,11 -1,4 -2,9 -3,13 -1,5 -2,9 -2,12 -1,4 -1,6 -1,8 0,2 0,4 1,5 1,1 2,2 3,2 1,0 3,0 3,-1 1,-1 1,-2 2,-4 0,-2 1,-3 2,-6 1,-2 3,-5 5,-8 2,-3 5,-5 8,-7 3,-2 8,-3 13,-4 5,-1 12,-1 20,-1l64 -1 0 167z"/>
  <path id="123456789101112131415161718192021222324" class="fil0" d="M4147 2699c0,13 0,26 0,37 0,11 0,22 0,31 0,9 -1,16 -1,22 -1,6 -2,11 -4,14 -2,3 -5,5 -9,6 -2,0 -4,1 -7,1 -2,0 -5,0 -8,0 -3,0 -4,1 -5,1 -1,1 -1,2 -1,3 0,1 1,3 2,3 1,1 3,1 6,1 4,0 9,0 15,0 5,0 11,0 16,0 5,0 10,0 15,0 4,0 8,0 10,0 4,0 10,0 17,0 7,0 15,0 24,1 9,0 18,0 28,0 3,0 4,0 6,-1 2,-1 2,-2 2,-3 0,-1 0,-2 -2,-3 -1,-1 -3,-1 -5,-1 -2,0 -5,0 -7,0 -3,0 -5,0 -8,0 -3,0 -5,0 -7,-1 -4,-1 -7,-2 -10,-3 -2,-2 -4,-4 -5,-6 -1,-3 -2,-6 -2,-10 -1,-6 -1,-13 -1,-22 0,-9 0,-19 0,-31 0,-11 0,-24 0,-37l0 -73c0,-12 0,-23 0,-32 0,-9 0,-16 0,-22 0,-6 0,-11 0,-15 0,-4 0,-7 0,-10 0,-3 0,-6 0,-8 0,-7 2,-12 4,-16 2,-3 6,-5 12,-6 2,0 5,-1 6,-1 2,0 4,0 6,0 2,0 4,0 5,-1 1,-1 2,-2 2,-4 0,-1 -1,-2 -2,-3 -2,-1 -4,-1 -6,-1 -4,0 -9,0 -14,0 -5,0 -10,0 -16,0 -5,0 -10,0 -14,0 -4,0 -8,0 -11,0 -3,0 -7,0 -12,0 -5,0 -10,0 -15,0 -5,0 -11,0 -16,0 -5,0 -10,0 -14,0 -3,0 -6,0 -8,1 -2,0 -3,1 -3,3 0,2 1,3 2,4 1,1 3,1 5,1 3,0 5,0 8,0 3,0 5,1 8,2 3,1 6,2 8,4 2,2 4,4 5,7 1,3 2,7 2,11 0,3 0,5 0,8 0,3 0,6 0,10 0,4 0,9 0,15 0,6 0,13 0,22 0,9 0,19 0,32l0 73z"/>
  <path id="12345678910111213141516171819202122232425" class="fil0" d="M4318 2777c-1,5 -2,9 -3,14 -1,5 -3,9 -5,12 -2,3 -5,5 -9,6 -3,0 -6,1 -8,1 -2,0 -4,0 -5,0 -2,0 -4,0 -5,1 -1,1 -2,2 -2,3 0,2 1,3 2,4 1,1 3,1 5,1 5,0 10,0 15,0 5,0 11,0 16,-1 5,0 9,0 12,0 3,0 6,0 11,0 5,0 10,0 16,1 6,0 12,0 18,0 3,0 6,0 7,-1 2,-1 3,-2 3,-4 0,-1 -1,-2 -2,-3 -1,-1 -3,-1 -5,-1 -2,0 -4,0 -6,0 -2,0 -5,-1 -9,-2 -4,-1 -7,-2 -9,-4 -2,-2 -4,-5 -4,-8 0,-3 0,-6 0,-10 0,-3 1,-6 1,-10l20 -159 1 0c3,6 6,12 10,19 3,7 7,14 11,21 4,7 7,14 10,20 3,6 6,12 8,16 2,5 4,8 4,9 1,2 3,7 6,12 3,6 6,13 10,20 4,8 8,15 12,23 4,8 8,15 12,22 4,7 6,12 9,16 3,6 6,11 9,15 3,4 5,6 8,6 2,0 3,0 4,-2 1,-1 3,-4 5,-7 2,-3 4,-8 8,-15l92 -182 1 0 24 178c1,6 1,10 0,13 0,3 -1,4 -2,5 -1,0 -3,1 -3,2 -1,1 -1,2 -1,3 0,1 1,2 3,3 2,1 5,1 10,2 4,0 8,0 15,1 6,0 13,0 21,1 8,0 15,0 22,1 7,0 14,0 19,0 5,0 9,0 12,0 3,0 6,0 8,-1 2,-1 3,-2 3,-4 0,-1 -1,-2 -2,-3 -1,-1 -3,-1 -5,-1 -3,0 -6,0 -10,-1 -4,0 -9,-2 -15,-3 -4,-1 -8,-3 -10,-7 -3,-3 -5,-8 -6,-13 -2,-5 -3,-13 -4,-21l-39 -254c-1,-4 -2,-8 -4,-10 -2,-2 -4,-3 -6,-3 -2,0 -4,1 -6,3 -2,2 -4,4 -5,8l-114 231 -114 -228c-2,-4 -4,-6 -5,-8 -1,-2 -3,-3 -4,-4 -1,-1 -3,-1 -4,-1 -2,0 -3,1 -5,3 -2,2 -3,5 -3,8l-42 267z"/>
  <path id="1234567891011121314151617181920212223242526" class="fil0" d="M4791 2699c0,13 0,25 0,36 0,11 0,21 0,30 0,9 -1,16 -1,22 -1,6 -2,11 -4,15 -2,4 -5,6 -9,7 -2,0 -4,1 -7,1 -2,0 -5,0 -8,0 -3,0 -4,1 -5,1 -1,1 -1,2 -1,3 0,1 1,3 2,3 1,1 3,1 6,1 4,0 9,0 14,0 5,0 10,0 15,-1 5,0 10,0 14,0 4,0 8,0 10,0 6,0 14,0 22,0 8,0 17,0 28,1 10,0 22,1 35,1 13,0 27,0 43,0 5,0 9,0 12,0 3,0 5,-1 7,-3 2,-2 3,-4 4,-8 1,-2 1,-5 2,-9 1,-4 1,-8 2,-13 1,-5 1,-9 1,-13 0,-4 1,-7 1,-10 0,-2 0,-4 -1,-6 0,-2 -2,-3 -3,-3 -1,0 -2,0 -3,2 -1,1 -1,3 -2,5 -1,8 -3,15 -6,20 -3,5 -7,8 -12,11 -4,2 -8,3 -13,4 -5,1 -10,1 -14,1 -5,0 -9,0 -13,0 -14,0 -26,-1 -34,-3 -8,-2 -14,-5 -18,-10 -4,-5 -5,-12 -6,-21 0,-3 0,-7 0,-13 0,-5 0,-11 0,-17 0,-6 0,-12 0,-18 0,-5 0,-10 0,-14l0 -33c0,-1 0,-2 0,-3 0,-1 1,-1 2,-1 2,0 6,0 10,0 5,0 10,0 16,0 6,0 11,0 17,0 6,0 11,0 15,1 4,0 7,0 9,1 5,0 10,1 13,3 3,1 6,3 7,5 2,2 3,5 4,8 0,3 1,5 1,8 0,3 0,5 1,7 0,1 0,2 1,2 1,1 2,1 3,1 1,0 2,-1 3,-2 1,-1 1,-2 1,-4 0,-1 0,-3 0,-4 0,-1 0,-2 0,-4 0,-2 0,-5 0,-7 0,-3 0,-6 1,-8 0,-3 0,-5 1,-7 1,-7 1,-12 2,-16 0,-4 1,-7 1,-9 0,-2 0,-3 0,-4 0,-1 0,-2 -1,-3 -1,-1 -1,-1 -2,-1 -1,0 -2,1 -3,2 -1,1 -2,2 -4,4 -2,2 -5,3 -8,4 -3,1 -7,2 -12,2 -2,0 -6,0 -11,0 -5,0 -11,0 -17,0 -6,0 -13,0 -19,0 -6,0 -12,0 -17,0 -5,0 -9,0 -11,0 -1,0 -2,0 -2,-1 0,-1 -1,-2 -1,-3l0 -102c0,-1 0,-2 1,-3 0,-1 1,-1 2,-1 2,0 5,0 10,0 5,0 10,0 16,0 6,0 12,0 18,0 6,0 11,0 15,1 4,0 7,0 9,1 7,1 12,2 16,3 4,1 6,3 8,5 2,2 3,4 4,7 1,2 1,3 2,5 0,2 1,4 1,5 0,2 0,3 0,4 0,2 0,3 1,4 0,1 1,1 3,1 1,0 2,0 3,-1 1,-1 1,-2 1,-3 0,-1 1,-2 1,-3 0,-1 0,-3 1,-6 0,-3 0,-5 1,-8 0,-3 0,-6 1,-8 0,-2 0,-4 0,-5 0,-6 1,-11 1,-15 1,-4 1,-6 1,-8 0,-2 1,-3 1,-4 0,-1 0,-2 -1,-3 0,-1 -1,-1 -2,-1 -1,0 -2,0 -3,1 -1,0 -2,1 -4,1 -2,0 -4,1 -7,1 -3,0 -7,1 -11,1 -1,0 -5,0 -11,0 -6,0 -12,0 -20,0 -8,0 -16,0 -25,0 -9,0 -18,0 -26,0 -8,0 -15,0 -22,0 -6,0 -10,0 -13,0 -4,0 -10,0 -16,0 -7,0 -14,0 -22,0 -8,0 -16,0 -23,0 -3,0 -6,0 -7,1 -2,1 -3,2 -3,3 0,1 1,3 2,3 1,1 3,1 5,1 3,0 6,0 10,0 3,0 6,1 7,1 5,1 8,3 11,4 3,2 4,4 6,7 1,3 2,7 2,11 0,3 0,5 0,8 0,3 0,6 0,10 0,4 0,9 0,15 0,6 0,13 0,22 0,9 0,19 0,32l0 73z"/>
  <path id="123456789101112131415161718192021222324252627" class="fil0" d="M5270 2825c9,0 17,-1 26,-2 9,-1 17,-3 26,-6 9,-3 17,-7 25,-12 12,-8 21,-16 27,-26 7,-9 11,-19 14,-29 3,-10 4,-20 4,-29 0,-11 -1,-22 -4,-33 -3,-10 -7,-20 -14,-30 -6,-10 -14,-20 -25,-30 -10,-10 -23,-20 -37,-31l-14 -10c-13,-10 -24,-19 -31,-27 -8,-8 -13,-15 -16,-22 -3,-7 -4,-14 -4,-21 0,-10 2,-18 7,-26 5,-8 11,-13 20,-18 9,-4 19,-6 31,-6 10,0 19,1 26,4 7,3 13,6 17,9 4,4 8,7 10,10 3,4 6,9 8,13 2,4 3,8 4,12 1,3 1,6 1,7 0,3 0,5 1,7 1,1 2,2 4,2 2,0 3,-1 4,-3 1,-2 1,-6 1,-11 0,-13 0,-23 0,-31 0,-8 1,-14 1,-18 0,-4 0,-7 0,-9 0,-2 -1,-3 -2,-4 -1,-1 -3,-2 -5,-2 -6,-2 -15,-4 -25,-5 -11,-2 -24,-3 -39,-3 -17,0 -32,2 -46,7 -14,5 -26,11 -35,19 -10,8 -17,18 -23,29 -5,11 -8,23 -8,37 0,13 2,26 7,38 5,12 12,25 23,37 11,13 25,26 42,40l22 17c10,8 18,15 24,22 6,7 11,13 14,20 3,6 6,12 7,18 1,6 2,12 2,18 0,7 -1,13 -4,19 -3,6 -7,12 -12,18 -5,5 -12,10 -20,13 -8,3 -18,5 -29,5 -10,0 -20,-2 -29,-5 -9,-3 -17,-8 -24,-16 -7,-7 -12,-17 -16,-29 -1,-4 -2,-9 -3,-13 -1,-4 -1,-8 -1,-12 0,-2 0,-4 -1,-6 -1,-2 -2,-3 -4,-3 -2,0 -3,1 -4,4 -1,2 -1,5 -2,9 0,2 0,5 -1,9 0,4 -1,9 -1,15 0,6 -1,12 -1,19 0,7 0,13 0,20 0,3 0,6 1,8 0,2 1,4 3,5 1,1 3,2 6,3 10,5 21,8 33,10 11,2 24,3 38,3z"/>
  <path id="12345678910111213141516171819202122232425262728" class="fil0" d="M5489 2699c0,13 0,25 0,36 0,11 0,21 0,30 0,9 -1,16 -1,22 -1,6 -2,11 -4,15 -2,4 -5,6 -9,7 -2,0 -4,1 -7,1 -2,0 -5,0 -8,0 -3,0 -4,1 -5,1 -1,1 -1,2 -1,3 0,1 1,3 2,3 1,1 3,1 6,1 4,0 9,0 14,0 5,0 10,0 15,-1 5,0 10,0 14,0 4,0 8,0 10,0 6,0 14,0 22,0 8,0 17,0 28,1 10,0 22,1 35,1 13,0 27,0 43,0 5,0 9,0 12,0 3,0 5,-1 7,-3 2,-2 3,-4 4,-8 1,-2 1,-5 2,-9 1,-4 1,-8 2,-13 1,-5 1,-9 1,-13 0,-4 1,-7 1,-10 0,-2 0,-4 -1,-6 0,-2 -2,-3 -3,-3 -1,0 -2,0 -3,2 -1,1 -1,3 -2,5 -1,8 -3,15 -6,20 -3,5 -7,8 -12,11 -4,2 -8,3 -13,4 -5,1 -10,1 -14,1 -5,0 -9,0 -13,0 -14,0 -26,-1 -34,-3 -8,-2 -14,-5 -18,-10 -4,-5 -5,-12 -6,-21 0,-3 0,-7 0,-13 0,-5 0,-11 0,-17 0,-6 0,-12 0,-18 0,-5 0,-10 0,-14l0 -33c0,-1 0,-2 0,-3 0,-1 1,-1 2,-1 2,0 6,0 10,0 5,0 10,0 16,0 6,0 11,0 17,0 6,0 11,0 15,1 4,0 7,0 9,1 5,0 10,1 13,3 3,1 6,3 7,5 2,2 3,5 4,8 0,3 1,5 1,8 0,3 0,5 1,7 0,1 0,2 1,2 1,1 2,1 3,1 1,0 2,-1 3,-2 1,-1 1,-2 1,-4 0,-1 0,-3 0,-4 0,-1 0,-2 0,-4 0,-2 0,-5 0,-7 0,-3 0,-6 1,-8 0,-3 0,-5 1,-7 1,-7 1,-12 2,-16 0,-4 1,-7 1,-9 0,-2 0,-3 0,-4 0,-1 0,-2 -1,-3 -1,-1 -1,-1 -2,-1 -1,0 -2,1 -3,2 -1,1 -2,2 -4,4 -2,2 -5,3 -8,4 -3,1 -7,2 -12,2 -2,0 -6,0 -11,0 -5,0 -11,0 -17,0 -6,0 -13,0 -19,0 -6,0 -12,0 -17,0 -5,0 -9,0 -11,0 -1,0 -2,0 -2,-1 0,-1 -1,-2 -1,-3l0 -102c0,-1 0,-2 1,-3 0,-1 1,-1 2,-1 2,0 5,0 10,0 5,0 10,0 16,0 6,0 12,0 18,0 6,0 11,0 15,1 4,0 7,0 9,1 7,1 12,2 16,3 4,1 6,3 8,5 2,2 3,4 4,7 1,2 1,3 2,5 0,2 1,4 1,5 0,2 0,3 0,4 0,2 0,3 1,4 0,1 1,1 3,1 1,0 2,0 3,-1 1,-1 1,-2 1,-3 0,-1 1,-2 1,-3 0,-1 0,-3 1,-6 0,-3 0,-5 1,-8 0,-3 0,-6 1,-8 0,-2 0,-4 0,-5 0,-6 1,-11 1,-15 1,-4 1,-6 1,-8 0,-2 1,-3 1,-4 0,-1 0,-2 -1,-3 0,-1 -1,-1 -2,-1 -1,0 -2,0 -3,1 -1,0 -2,1 -4,1 -2,0 -4,1 -7,1 -3,0 -7,1 -11,1 -1,0 -5,0 -11,0 -6,0 -12,0 -20,0 -8,0 -16,0 -25,0 -9,0 -18,0 -26,0 -8,0 -15,0 -22,0 -6,0 -10,0 -13,0 -4,0 -10,0 -16,0 -7,0 -14,0 -22,0 -8,0 -16,0 -23,0 -3,0 -6,0 -7,1 -2,1 -3,2 -3,3 0,1 1,3 2,3 1,1 3,1 5,1 3,0 6,0 10,0 3,0 6,1 7,1 5,1 8,3 11,4 3,2 4,4 6,7 1,3 2,7 2,11 0,3 0,5 0,8 0,3 0,6 0,10 0,4 0,9 0,15 0,6 0,13 0,22 0,9 0,19 0,32l0 73z"/>
  <path id="1234567891011121314151617181920212223242526272829" class="fil0" d="M5742 2777c-1,5 -2,9 -3,14 -1,5 -3,9 -5,12 -2,3 -5,5 -9,6 -3,0 -6,1 -8,1 -2,0 -4,0 -5,0 -2,0 -4,0 -5,1 -1,1 -2,2 -2,3 0,2 1,3 2,4 1,1 3,1 5,1 5,0 10,0 15,0 5,0 11,0 16,-1 5,0 9,0 12,0 3,0 6,0 11,0 5,0 10,0 16,1 6,0 12,0 18,0 3,0 6,0 7,-1 2,-1 3,-2 3,-4 0,-1 -1,-2 -2,-3 -1,-1 -3,-1 -5,-1 -2,0 -4,0 -6,0 -2,0 -5,-1 -9,-2 -4,-1 -7,-2 -9,-4 -2,-2 -4,-5 -4,-8 0,-3 0,-6 0,-10 0,-3 1,-6 1,-10l20 -159 1 0c3,6 6,12 10,19 3,7 7,14 11,21 4,7 7,14 10,20 3,6 6,12 8,16 2,5 4,8 4,9 1,2 3,7 6,12 3,6 6,13 10,20 4,8 8,15 12,23 4,8 8,15 12,22 4,7 6,12 9,16 3,6 6,11 9,15 3,4 5,6 8,6 2,0 3,0 4,-2 1,-1 3,-4 5,-7 2,-3 4,-8 8,-15l92 -182 1 0 24 178c1,6 1,10 0,13 0,3 -1,4 -2,5 -1,0 -3,1 -3,2 -1,1 -1,2 -1,3 0,1 1,2 3,3 2,1 5,1 10,2 4,0 8,0 15,1 6,0 13,0 21,1 8,0 15,0 22,1 7,0 14,0 19,0 5,0 9,0 12,0 3,0 6,0 8,-1 2,-1 3,-2 3,-4 0,-1 -1,-2 -2,-3 -1,-1 -3,-1 -5,-1 -3,0 -6,0 -10,-1 -4,0 -9,-2 -15,-3 -4,-1 -8,-3 -10,-7 -3,-3 -5,-8 -6,-13 -2,-5 -3,-13 -4,-21l-39 -254c-1,-4 -2,-8 -4,-10 -2,-2 -4,-3 -6,-3 -2,0 -4,1 -6,3 -2,2 -4,4 -5,8l-114 231 -114 -228c-2,-4 -4,-6 -5,-8 -1,-2 -3,-3 -4,-4 -1,-1 -3,-1 -4,-1 -2,0 -3,1 -5,3 -2,2 -3,5 -3,8l-42 267z"/>
  <path id="123456789101112131415161718192021222324252627282930" class="fil0" d="M6215 2699c0,13 0,26 0,37 0,11 0,22 0,31 0,9 -1,16 -1,22 -1,6 -2,11 -4,14 -2,3 -5,5 -9,6 -2,0 -4,1 -7,1 -2,0 -5,0 -8,0 -3,0 -4,1 -5,1 -1,1 -1,2 -1,3 0,1 1,3 2,3 1,1 3,1 6,1 4,0 9,0 15,0 5,0 11,0 16,0 5,0 10,0 15,0 4,0 8,0 10,0 4,0 10,0 17,0 7,0 15,0 24,1 9,0 18,0 28,0 3,0 4,0 6,-1 2,-1 2,-2 2,-3 0,-1 0,-2 -2,-3 -1,-1 -3,-1 -5,-1 -2,0 -5,0 -7,0 -3,0 -5,0 -8,0 -3,0 -5,0 -7,-1 -4,-1 -7,-2 -10,-3 -2,-2 -4,-4 -5,-6 -1,-3 -2,-6 -2,-10 -1,-6 -1,-13 -1,-22 0,-9 0,-19 0,-31 0,-11 0,-24 0,-37l0 -73c0,-12 0,-23 0,-32 0,-9 0,-16 0,-22 0,-6 0,-11 0,-15 0,-4 0,-7 0,-10 0,-3 0,-6 0,-8 0,-7 2,-12 4,-16 2,-3 6,-5 12,-6 2,0 5,-1 6,-1 2,0 4,0 6,0 2,0 4,0 5,-1 1,-1 2,-2 2,-4 0,-1 -1,-2 -2,-3 -2,-1 -4,-1 -6,-1 -4,0 -9,0 -14,0 -5,0 -10,0 -16,0 -5,0 -10,0 -14,0 -4,0 -8,0 -11,0 -3,0 -7,0 -12,0 -5,0 -10,0 -15,0 -5,0 -11,0 -16,0 -5,0 -10,0 -14,0 -3,0 -6,0 -8,1 -2,0 -3,1 -3,3 0,2 1,3 2,4 1,1 3,1 5,1 3,0 5,0 8,0 3,0 5,1 8,2 3,1 6,2 8,4 2,2 4,4 5,7 1,3 2,7 2,11 0,3 0,5 0,8 0,3 0,6 0,10 0,4 0,9 0,15 0,6 0,13 0,22 0,9 0,19 0,32l0 73z"/>
  <path id="12345678910111213141516171819202122232425262728293031" class="fil0" d="M6435 2594l1 0c2,2 6,6 13,13 6,7 14,15 23,24 9,10 19,20 30,31 11,11 22,22 34,34 11,11 23,22 35,33 12,11 23,22 34,33 11,11 22,21 31,30 10,9 18,17 24,23 2,2 5,4 8,6 3,2 6,3 10,3 2,0 3,-1 5,-3 1,-2 2,-5 2,-10l5 -260c0,-8 1,-14 2,-18 1,-5 3,-8 5,-10 2,-2 5,-4 9,-5 3,-1 5,-1 7,-1 2,0 4,0 6,0 2,0 4,0 5,-1 1,-1 2,-2 2,-3 0,-2 -1,-3 -3,-3 -2,0 -4,-1 -7,-1 -11,0 -19,0 -27,0 -7,0 -12,0 -15,0 -3,0 -8,0 -13,0 -6,0 -12,0 -19,0 -7,0 -14,0 -22,0 -3,0 -6,0 -8,1 -2,0 -3,2 -3,3 0,1 0,2 1,3 1,1 3,1 5,1 2,0 4,0 7,0 3,0 5,0 8,1 3,0 5,1 7,2 3,1 6,3 8,5 2,3 4,6 5,11 1,5 2,11 2,20l4 183 -2 0c-1,-1 -4,-4 -9,-9 -5,-5 -11,-11 -18,-18 -7,-7 -14,-14 -22,-22 -8,-8 -16,-16 -23,-23 -8,-8 -14,-14 -20,-20 -13,-12 -25,-24 -37,-36 -12,-12 -24,-24 -35,-34 -11,-11 -21,-21 -29,-29 -9,-9 -16,-16 -21,-21 -5,-5 -9,-9 -10,-10 -4,-4 -7,-7 -10,-10 -3,-3 -6,-4 -8,-4 -2,0 -4,1 -5,4 -1,3 -2,6 -2,10l-4 244c0,12 0,21 -1,28 -1,7 -2,12 -4,15 -2,3 -5,5 -8,6 -3,1 -6,1 -10,2 -3,0 -7,0 -10,0 -2,0 -4,0 -5,1 -1,1 -2,2 -2,3 0,2 1,3 3,4 2,1 4,1 7,1 7,0 14,0 21,0 6,0 12,0 16,-1 5,0 7,0 9,0 4,0 11,0 20,1 9,0 21,1 35,1 3,0 5,0 7,-1 2,-1 3,-2 3,-3 0,-1 -1,-2 -2,-3 -1,-1 -3,-1 -5,-1 -3,0 -7,0 -11,-1 -4,0 -8,-1 -11,-2 -3,-1 -5,-3 -7,-6 -2,-3 -4,-8 -5,-14 -1,-6 -2,-15 -2,-25l-5 -168z"/>
  <path id="1234567891011121314151617181920212223242526272829303132" class="fil0" d="M6939 2714c1,0 2,0 3,1 1,0 1,1 2,2l33 83c1,3 1,5 0,6 -1,2 -2,3 -4,3 -2,0 -4,1 -4,1 -1,1 -1,2 -1,3 0,1 1,2 3,3 2,0 5,1 9,1 12,0 23,1 34,1 11,0 20,0 28,0 8,0 15,0 20,0 5,0 9,0 12,0 3,0 4,-1 5,-1 1,-1 1,-2 1,-3 0,-3 -2,-4 -6,-4 -2,0 -5,0 -7,0 -3,0 -5,-1 -9,-1 -2,0 -4,-1 -7,-2 -3,-1 -5,-3 -8,-6 -3,-3 -6,-7 -10,-13 -4,-6 -7,-13 -12,-22 -4,-9 -9,-20 -14,-32 -5,-13 -11,-26 -18,-41 -6,-15 -13,-30 -19,-45 -7,-15 -13,-30 -19,-45 -6,-15 -12,-28 -17,-40 -5,-12 -10,-23 -13,-31 -4,-9 -6,-14 -8,-18 -1,-3 -3,-6 -4,-8 -1,-2 -2,-3 -4,-4 -1,-1 -3,-1 -5,-1 -2,0 -4,1 -6,4 -2,3 -4,7 -6,13l-112 257c-3,7 -6,13 -9,18 -3,5 -7,9 -11,12 -4,3 -9,5 -16,6 -2,0 -4,0 -6,0 -2,0 -4,0 -6,0 -2,0 -3,0 -4,1 -1,1 -1,2 -1,3 0,2 1,3 2,3 1,1 3,1 6,1 8,0 15,0 22,0 7,0 13,0 18,-1 5,0 8,0 10,0 5,0 10,0 15,0 5,0 11,0 17,1 6,0 11,0 16,0 2,0 4,0 5,-1 1,-1 2,-2 2,-3 0,-1 0,-2 -1,-3 -1,-1 -3,-1 -5,-1l-6 0c-6,0 -11,-1 -13,-3 -3,-2 -4,-5 -4,-9 0,-3 0,-6 2,-11 1,-5 3,-9 5,-15l23 -56c0,-1 1,-2 1,-2 0,0 1,-1 3,-1l100 0zm-92 -23c-1,0 -1,0 -2,-1 0,0 0,-1 0,-2l41 -103c0,-1 0,-2 1,-3 0,-1 1,-1 2,-1 0,0 1,1 1,1 0,1 1,2 1,3l40 103c0,1 0,1 0,2 0,0 -1,1 -2,1l-82 0z"/>
  <path id="123456789101112131415161718192021222324252627282930313233" class="fil0" d="M7127 2699c0,13 0,25 0,36 0,11 0,21 0,30 0,9 -1,16 -1,22 -1,6 -2,11 -4,15 -2,4 -5,6 -9,7 -2,0 -4,1 -7,1 -2,0 -5,0 -8,0 -3,0 -4,1 -5,1 -1,1 -1,2 -1,3 0,1 1,3 2,3 1,1 3,1 6,1 4,0 9,0 14,0 5,0 10,0 15,0 5,0 10,0 14,0 4,0 7,0 9,0 2,0 5,0 10,0 5,0 10,0 17,0 6,0 13,0 20,0 7,0 14,0 20,0 3,0 5,0 6,-1 2,-1 2,-2 2,-3 0,-1 0,-2 -1,-3 -1,-1 -2,-1 -4,-1 -2,0 -4,0 -6,0 -2,0 -5,0 -7,0 -3,0 -5,0 -7,-1 -4,-1 -8,-2 -10,-4 -2,-2 -4,-4 -5,-7 -1,-3 -2,-7 -2,-11 -1,-6 -1,-13 -1,-22 0,-9 -1,-19 -1,-30 0,-11 0,-23 0,-36l0 -6c0,-1 0,-2 1,-3 1,-1 1,-1 2,-1l38 1c1,0 3,0 4,1 1,0 3,1 4,2 1,2 3,4 6,8 3,4 6,8 10,14 4,5 8,11 12,17 4,6 8,12 13,17 8,11 15,20 22,28 6,8 13,15 19,20 6,5 12,10 18,13 4,2 8,3 12,5 4,1 9,2 15,3 6,1 12,1 20,1l41 0c3,0 5,0 6,-1 1,-1 2,-2 2,-3 0,-1 0,-2 -1,-3 -1,-1 -2,-1 -4,-1 -2,0 -3,0 -5,0 -2,0 -3,0 -5,-1 -2,0 -5,-1 -10,-2 -4,-1 -9,-4 -15,-7 -6,-4 -13,-10 -21,-17 -13,-13 -27,-29 -42,-47 -15,-18 -32,-39 -51,-63 14,-11 25,-22 34,-32 9,-10 15,-20 19,-30 4,-10 6,-20 6,-30 0,-7 -1,-13 -3,-19 -2,-6 -4,-11 -8,-16 -3,-5 -6,-9 -10,-13 -3,-4 -7,-6 -10,-8 -8,-5 -16,-9 -25,-11 -9,-3 -18,-4 -28,-5 -10,-1 -19,-1 -28,-1 -3,0 -8,0 -14,0 -6,0 -12,0 -19,0 -7,0 -13,0 -19,0 -6,0 -11,0 -15,0 -2,0 -5,0 -10,0 -4,0 -9,0 -14,0 -5,0 -11,0 -17,0 -6,0 -12,0 -17,0 -3,0 -6,0 -7,1 -2,1 -3,2 -3,3 0,1 1,3 2,3 1,1 3,1 5,1 3,0 6,0 10,0 3,0 6,1 7,1 5,1 8,3 11,4 3,2 4,4 6,7 1,3 2,7 2,11 0,3 0,5 0,8 0,3 0,6 0,10 0,4 0,9 0,15 0,6 0,13 0,22 0,9 0,19 0,32l0 73zm54 -163c0,-2 0,-3 1,-4 1,-1 2,-2 3,-2 2,0 6,-1 10,-1 5,0 10,0 15,0 5,0 11,1 16,2 6,1 12,4 17,7 6,3 11,8 16,13 5,6 8,13 11,21 3,8 4,18 4,30 0,11 -2,21 -4,29 -3,8 -6,15 -10,20 -4,5 -9,9 -13,12 -2,2 -5,3 -7,4 -3,1 -5,2 -9,2 -4,0 -8,1 -14,1 -5,0 -11,0 -17,-1 -6,-1 -11,-2 -16,-3 -1,-1 -2,-2 -3,-3 -1,-1 -1,-3 -1,-5l0 -123z"/>
 </g>
</svg>
