<?xml version="1.0" encoding="UTF-8"?>
<!DOCTYPE svg PUBLIC "-//W3C//DTD SVG 1.1//EN" "http://www.w3.org/Graphics/SVG/1.1/DTD/svg11.dtd">
<!-- Creator: CorelDRAW X5 -->
<svg xmlns="http://www.w3.org/2000/svg" xml:space="preserve" width="93.0837mm" height="31.0821mm" style="shape-rendering:geometricPrecision; text-rendering:geometricPrecision; image-rendering:optimizeQuality; fill-rule:evenodd; clip-rule:evenodd"
viewBox="0 0 9618 3212"
 xmlns:xlink="http://www.w3.org/1999/xlink">
 <defs>
  <style type="text/css">
   <![CDATA[
    .fil0 {fill:#3366FF;fill-rule:nonzero}
   ]]>
  </style>
    <clipPath id="id0" style="clip-rule:nonzero">
     <rect width="9618" height="2582"/>
    </clipPath>
 </defs>
 <g id="Layer_x0020_1">
  <metadata id="CorelCorpID_0Corel-Layer"/>
  <g id="_612119496">
   <g style="clip-path:url(#id0)">
    <image transform="matrix(1 0 0 1 -4654.19 3541.33)" x="4654" y="-3542" width="9621" height="2583" xlink:href="Dostas_Images\Dostas_ImgID1.png"/>
   </g>
   <path class="fil0" d="M124 2825l110 0c25,0 44,2 57,6 18,5 33,14 45,28 13,13 22,29 29,48 6,19 10,43 10,71 0,25 -3,46 -9,64 -7,22 -18,39 -32,53 -10,10 -25,18 -42,24 -13,4 -31,6 -53,6l-114 0 0 -299zm60 51l0 198 45 0c17,0 29,-1 37,-3 10,-2 18,-7 24,-12 6,-6 12,-16 16,-29 4,-13 6,-32 6,-55 0,-23 -2,-41 -6,-53 -4,-12 -10,-22 -17,-29 -7,-7 -17,-12 -28,-14 -8,-2 -25,-3 -50,-3l-27 0z"/>
   <path id="1" class="fil0" d="M552 3055l57 10c-7,21 -19,37 -35,48 -16,11 -36,16 -59,16 -38,0 -66,-12 -84,-37 -14,-20 -21,-45 -21,-75 0,-36 9,-64 28,-84 19,-20 42,-30 71,-30 32,0 58,11 76,32 19,21 27,54 27,98l-144 0c0,17 5,30 14,40 9,9 20,14 33,14 9,0 17,-2 23,-7 6,-5 11,-13 14,-24zm3 -58c0,-17 -5,-29 -13,-38 -8,-9 -18,-13 -30,-13 -13,0 -23,5 -31,14 -8,9 -12,21 -12,37l86 0z"/>
   <path id="12" class="fil0" d="M658 2907l53 0 0 32c7,-11 16,-20 28,-27 12,-7 25,-10 39,-10 25,0 47,10 64,30 18,20 26,47 26,82 0,36 -9,64 -26,84 -18,20 -39,30 -64,30 -12,0 -23,-2 -33,-7 -10,-5 -20,-13 -31,-24l0 109 -57 0 0 -299zm57 105c0,24 5,42 14,54 10,12 21,17 35,17 13,0 24,-5 33,-16 9,-11 13,-28 13,-52 0,-23 -5,-40 -14,-51 -9,-11 -20,-16 -34,-16 -14,0 -26,5 -35,16 -9,11 -14,27 -14,48z"/>
   <path id="123" class="fil0" d="M959 2973l-52 -9c6,-21 16,-36 30,-47 14,-10 36,-15 64,-15 26,0 45,3 57,9 12,6 21,14 26,23 5,9 8,26 8,51l-1 67c0,19 1,33 3,42 2,9 5,19 10,29l-57 0c-1,-4 -3,-9 -6,-17 -1,-3 -2,-6 -2,-7 -10,10 -20,17 -31,21 -11,5 -23,7 -36,7 -22,0 -40,-6 -53,-18 -13,-12 -19,-27 -19,-46 0,-12 3,-23 9,-33 6,-10 14,-17 25,-22 11,-5 26,-10 46,-13 27,-5 45,-10 56,-14l0 -6c0,-11 -3,-19 -8,-24 -5,-5 -16,-7 -31,-7 -10,0 -18,2 -24,6 -6,4 -10,11 -14,21zm77 47c-7,2 -19,5 -35,9 -16,3 -26,7 -31,10 -7,5 -11,12 -11,20 0,8 3,15 9,21 6,6 14,9 23,9 10,0 20,-3 30,-10 7,-5 11,-11 14,-19 2,-5 2,-14 2,-28l0 -11z"/>
   <path id="1234" class="fil0" d="M1204 3124l-57 0 0 -217 53 0 0 31c9,-15 17,-24 25,-29 7,-5 16,-7 25,-7 13,0 26,4 38,11l-18 50c-10,-6 -19,-9 -27,-9 -8,0 -15,2 -20,7 -6,4 -10,12 -13,24 -3,12 -5,36 -5,73l0 67z"/>
   <path id="12345" class="fil0" d="M1413 2907l0 46 -39 0 0 87c0,18 0,28 1,31 1,3 2,5 5,7 3,2 6,3 10,3 5,0 13,-2 23,-5l5 44c-13,6 -28,9 -45,9 -10,0 -20,-2 -28,-5 -8,-3 -14,-8 -18,-14 -4,-5 -7,-13 -8,-22 -1,-7 -2,-20 -2,-40l0 -94 -26 0 0 -46 26 0 0 -43 57 -33 0 77 39 0z"/>
   <path id="123456" class="fil0" d="M1449 2907l53 0 0 30c19,-23 41,-34 68,-34 14,0 26,3 36,9 10,6 19,14 25,26 9,-12 20,-20 31,-26 11,-6 23,-9 35,-9 16,0 29,3 40,10 11,6 19,16 25,28 4,9 6,24 6,45l0 138 -57 0 0 -124c0,-22 -2,-35 -6,-42 -5,-8 -13,-12 -24,-12 -8,0 -16,2 -23,7 -7,5 -12,12 -15,22 -3,9 -5,24 -5,45l0 104 -57 0 0 -119c0,-21 -1,-35 -3,-41 -2,-6 -5,-11 -9,-14 -4,-3 -10,-5 -17,-5 -9,0 -17,2 -24,7 -7,5 -12,12 -15,21 -3,9 -5,24 -5,45l0 105 -57 0 0 -217z"/>
   <path id="1234567" class="fil0" d="M1951 3055l57 10c-7,21 -19,37 -35,48 -16,11 -36,16 -59,16 -38,0 -66,-12 -84,-37 -14,-20 -21,-45 -21,-75 0,-36 9,-64 28,-84 19,-20 42,-30 71,-30 32,0 58,11 76,32 19,21 27,54 27,98l-144 0c0,17 5,30 14,40 9,9 20,14 33,14 9,0 17,-2 23,-7 6,-5 11,-13 14,-24zm3 -58c0,-17 -5,-29 -13,-38 -8,-9 -18,-13 -30,-13 -13,0 -23,5 -31,14 -8,9 -12,21 -12,37l86 0z"/>
   <path id="12345678" class="fil0" d="M2256 3124l-57 0 0 -111c0,-23 -1,-38 -4,-45 -2,-7 -6,-12 -12,-16 -5,-4 -12,-6 -20,-6 -10,0 -19,3 -27,8 -8,6 -13,13 -16,22 -3,9 -4,26 -4,50l0 98 -57 0 0 -217 53 0 0 32c19,-25 43,-37 71,-37 13,0 24,2 35,7 10,5 18,10 24,17 5,7 9,15 11,24 2,9 3,22 3,38l0 135z"/>
   <path id="123456789" class="fil0" d="M2415 2907l0 46 -39 0 0 87c0,18 0,28 1,31 1,3 2,5 5,7 3,2 6,3 10,3 5,0 13,-2 23,-5l5 44c-13,6 -28,9 -45,9 -10,0 -20,-2 -28,-5 -8,-3 -14,-8 -18,-14 -4,-5 -7,-13 -8,-22 -1,-7 -2,-20 -2,-40l0 -94 -26 0 0 -46 26 0 0 -43 57 -33 0 77 39 0z"/>
   <path id="12345678910" class="fil0" d="M2553 3012c0,-19 5,-37 14,-55 9,-18 23,-31 40,-41 17,-9 36,-14 58,-14 33,0 60,11 81,32 21,21 31,48 31,81 0,33 -11,60 -32,81 -21,22 -48,32 -80,32 -20,0 -39,-4 -57,-13 -18,-9 -32,-22 -41,-39 -9,-17 -14,-38 -14,-63zm59 3c0,22 5,38 15,49 10,11 23,17 38,17 15,0 27,-6 38,-17 10,-11 15,-28 15,-50 0,-21 -5,-38 -15,-49 -10,-11 -23,-17 -38,-17 -15,0 -28,6 -38,17 -10,11 -15,28 -15,49z"/>
   <path id="1234567891011" class="fil0" d="M2798 2907l32 0 0 -16c0,-18 2,-32 6,-41 4,-9 11,-16 21,-22 10,-6 24,-8 39,-8 16,0 32,2 48,7l-8 40c-9,-2 -18,-3 -26,-3 -8,0 -14,2 -18,6 -4,4 -5,11 -5,22l0 15 43 0 0 45 -43 0 0 172 -57 0 0 -172 -32 0 0 -45z"/>
   <path id="123456789101112" class="fil0" d="M3063 3026l59 -6c3,20 11,34 22,44 11,9 25,14 44,14 19,0 34,-4 44,-12 10,-8 15,-18 15,-29 0,-7 -2,-13 -6,-18 -4,-5 -11,-9 -22,-13 -7,-3 -23,-7 -48,-13 -32,-8 -55,-18 -68,-30 -18,-16 -28,-36 -28,-60 0,-15 4,-29 13,-43 9,-13 21,-23 37,-30 16,-7 36,-10 59,-10 38,0 66,8 85,25 19,17 29,38 30,66l-60 3c-3,-15 -8,-26 -17,-33 -8,-7 -21,-10 -38,-10 -18,0 -31,4 -41,11 -6,5 -10,11 -10,19 0,7 3,13 9,18 8,6 26,13 55,20 29,7 51,14 65,22 14,7 25,18 33,30 8,13 12,29 12,48 0,17 -5,33 -14,48 -10,15 -23,26 -40,33 -17,7 -39,11 -65,11 -38,0 -67,-9 -87,-26 -20,-17 -32,-43 -36,-76z"/>
   <path id="12345678910111213" class="fil0" d="M3415 2825l0 110c19,-22 41,-32 66,-32 13,0 25,3 36,7 11,5 19,11 24,19 5,8 9,16 11,25 2,9 3,24 3,43l0 127 -57 0 0 -114c0,-23 -1,-37 -3,-43 -2,-6 -6,-11 -12,-15 -6,-4 -12,-5 -21,-5 -10,0 -18,2 -25,7 -8,5 -13,12 -16,21 -3,9 -5,23 -5,41l0 109 -57 0 0 -299 57 0z"/>
   <path id="1234567891011121314" class="fil0" d="M3614 2878l0 -53 57 0 0 53 -57 0zm0 246l0 -217 57 0 0 217 -57 0z"/>
   <path id="123456789101112131415" class="fil0" d="M3730 2907l53 0 0 32c7,-11 16,-20 28,-27 12,-7 25,-10 39,-10 25,0 47,10 64,30 18,20 26,47 26,82 0,36 -9,64 -26,84 -18,20 -39,30 -64,30 -12,0 -23,-2 -33,-7 -10,-5 -20,-13 -31,-24l0 109 -57 0 0 -299zm57 105c0,24 5,42 14,54 10,12 21,17 35,17 13,0 24,-5 33,-16 9,-11 13,-28 13,-52 0,-23 -5,-40 -14,-51 -9,-11 -20,-16 -34,-16 -14,0 -26,5 -35,16 -9,11 -14,27 -14,48z"/>
   <polygon id="12345678910111213141516" class="fil0" points="4170,3124 4170,2875 4081,2875 4081,2825 4319,2825 4319,2875 4231,2875 4231,3124 "/>
   <path id="1234567891011121314151617" class="fil0" d="M4453 3055l57 10c-7,21 -19,37 -35,48 -16,11 -36,16 -59,16 -38,0 -66,-12 -84,-37 -14,-20 -21,-45 -21,-75 0,-36 9,-64 28,-84 19,-20 42,-30 71,-30 32,0 58,11 76,32 19,21 27,54 27,98l-144 0c0,17 5,30 14,40 9,9 20,14 33,14 9,0 17,-2 23,-7 6,-5 11,-13 14,-24zm3 -58c0,-17 -5,-29 -13,-38 -8,-9 -18,-13 -30,-13 -13,0 -23,5 -31,14 -8,9 -12,21 -12,37l86 0z"/>
   <path id="123456789101112131415161718" class="fil0" d="M4750 2971l-57 10c-2,-11 -6,-20 -13,-25 -7,-6 -15,-9 -26,-9 -14,0 -26,5 -34,15 -8,10 -13,26 -13,49 0,26 4,44 13,54 9,11 20,16 35,16 11,0 20,-3 27,-9 7,-6 12,-17 15,-32l56 10c-6,26 -17,45 -34,59 -17,13 -39,20 -67,20 -32,0 -57,-10 -76,-30 -19,-20 -28,-48 -28,-83 0,-36 9,-64 28,-83 19,-20 44,-30 77,-30 26,0 47,6 63,17 16,11 27,29 34,52z"/>
   <path id="12345678910111213141516171819" class="fil0" d="M4848 2825l0 110c19,-22 41,-32 66,-32 13,0 25,3 36,7 11,5 19,11 24,19 5,8 9,16 11,25 2,9 3,24 3,43l0 127 -57 0 0 -114c0,-23 -1,-37 -3,-43 -2,-6 -6,-11 -12,-15 -6,-4 -12,-5 -21,-5 -10,0 -18,2 -25,7 -8,5 -13,12 -16,21 -3,9 -5,23 -5,41l0 109 -57 0 0 -299 57 0z"/>
   <path id="1234567891011121314151617181920" class="fil0" d="M5244 3124l-57 0 0 -111c0,-23 -1,-38 -4,-45 -2,-7 -6,-12 -12,-16 -5,-4 -12,-6 -20,-6 -10,0 -19,3 -27,8 -8,6 -13,13 -16,22 -3,9 -4,26 -4,50l0 98 -57 0 0 -217 53 0 0 32c19,-25 43,-37 71,-37 13,0 24,2 35,7 10,5 18,10 24,17 5,7 9,15 11,24 2,9 3,22 3,38l0 135z"/>
   <path id="123456789101112131415161718192021" class="fil0" d="M5290 3012c0,-19 5,-37 14,-55 9,-18 23,-31 40,-41 17,-9 36,-14 58,-14 33,0 60,11 81,32 21,21 31,48 31,81 0,33 -11,60 -32,81 -21,22 -48,32 -80,32 -20,0 -39,-4 -57,-13 -18,-9 -32,-22 -41,-39 -9,-17 -14,-38 -14,-63zm59 3c0,22 5,38 15,49 10,11 23,17 38,17 15,0 27,-6 38,-17 10,-11 15,-28 15,-50 0,-21 -5,-38 -15,-49 -10,-11 -23,-17 -38,-17 -15,0 -28,6 -38,17 -10,11 -15,28 -15,49z"/>
   <polygon id="12345678910111213141516171819202122" class="fil0" points="5559,3124 5559,2825 5617,2825 5617,3124 "/>
   <path id="1234567891011121314151617181920212223" class="fil0" d="M5663 3012c0,-19 5,-37 14,-55 9,-18 23,-31 40,-41 17,-9 36,-14 58,-14 33,0 60,11 81,32 21,21 31,48 31,81 0,33 -11,60 -32,81 -21,22 -48,32 -80,32 -20,0 -39,-4 -57,-13 -18,-9 -32,-22 -41,-39 -9,-17 -14,-38 -14,-63zm59 3c0,22 5,38 15,49 10,11 23,17 38,17 15,0 27,-6 38,-17 10,-11 15,-28 15,-50 0,-21 -5,-38 -15,-49 -10,-11 -23,-17 -38,-17 -15,0 -28,6 -38,17 -10,11 -15,28 -15,49z"/>
   <path id="123456789101112131415161718192021222324" class="fil0" d="M5927 3138l65 8c1,8 4,13 8,16 5,4 14,6 26,6 15,0 26,-2 34,-7 5,-3 9,-8 11,-14 2,-5 3,-14 3,-26l0 -32c-17,23 -39,35 -65,35 -29,0 -52,-12 -69,-37 -13,-19 -20,-44 -20,-73 0,-36 9,-64 26,-83 17,-19 39,-29 65,-29 27,0 49,12 66,35l0 -30 54 0 0 194c0,26 -2,45 -6,57 -4,13 -10,23 -18,30 -8,7 -18,13 -30,17 -13,4 -29,6 -48,6 -37,0 -63,-6 -78,-19 -15,-13 -23,-29 -23,-48 0,-2 0,-4 0,-7zm51 -127c0,23 4,40 13,50 9,11 20,16 33,16 14,0 26,-5 36,-16 10,-11 14,-27 14,-49 0,-22 -5,-39 -14,-50 -9,-11 -21,-16 -35,-16 -14,0 -25,5 -34,16 -9,11 -13,27 -13,49z"/>
   <path id="12345678910111213141516171819202122232425" class="fil0" d="M6162 2907l61 0 52 154 51 -154 59 0 -76 208 -14 38c-5,13 -10,22 -14,29 -5,7 -10,12 -16,16 -6,4 -13,7 -22,10 -9,2 -18,3 -29,3 -11,0 -22,-1 -32,-3l-5 -45c9,2 17,3 24,3 13,0 23,-4 30,-12 6,-8 11,-18 15,-30l-82 -217z"/>
   <path id="1234567891011121314151617181920212223242526" class="fil0" d="M6800 3124l-66 0 -26 -68 -120 0 -25 68 -64 0 116 -299 64 0 120 299zm-111 -118l-41 -111 -40 111 82 0z"/>
   <polygon id="123456789101112131415161718192021222324252627" class="fil0" points="6833,3124 6833,2825 6890,2825 6890,3124 "/>
   <path id="12345678910111213141516171819202122232425262728" class="fil0" d="M7093 3124l0 -32c-8,12 -18,21 -31,27 -13,7 -26,10 -41,10 -15,0 -28,-3 -39,-10 -12,-6 -20,-15 -25,-27 -5,-12 -8,-28 -8,-48l0 -137 57 0 0 99c0,30 1,49 3,56 2,7 6,12 11,16 6,4 13,6 21,6 10,0 19,-3 26,-8 8,-5 13,-12 16,-20 3,-8 4,-27 4,-58l0 -91 57 0 0 217 -53 0z"/>
   <path id="1234567891011121314151617181920212223242526272829" class="fil0" d="M7202 2907l53 0 0 30c19,-23 41,-34 68,-34 14,0 26,3 36,9 10,6 19,14 25,26 9,-12 20,-20 31,-26 11,-6 23,-9 35,-9 16,0 29,3 40,10 11,6 19,16 25,28 4,9 6,24 6,45l0 138 -57 0 0 -124c0,-22 -2,-35 -6,-42 -5,-8 -13,-12 -24,-12 -8,0 -16,2 -23,7 -7,5 -12,12 -15,22 -3,9 -5,24 -5,45l0 104 -57 0 0 -119c0,-21 -1,-35 -3,-41 -2,-6 -5,-11 -9,-14 -4,-3 -10,-5 -17,-5 -9,0 -17,2 -24,7 -7,5 -12,12 -15,21 -3,9 -5,24 -5,45l0 105 -57 0 0 -217z"/>
   <path id="123456789101112131415161718192021222324252627282930" class="fil0" d="M7776 3124l-57 0 0 -111c0,-23 -1,-38 -4,-45 -2,-7 -6,-12 -12,-16 -5,-4 -12,-6 -20,-6 -10,0 -19,3 -27,8 -8,6 -13,13 -16,22 -3,9 -4,26 -4,50l0 98 -57 0 0 -217 53 0 0 32c19,-25 43,-37 71,-37 13,0 24,2 35,7 10,5 18,10 24,17 5,7 9,15 11,24 2,9 3,22 3,38l0 135z"/>
   <path id="12345678910111213141516171819202122232425262728293031" class="fil0" d="M7835 2878l0 -53 57 0 0 53 -57 0zm0 246l0 -217 57 0 0 217 -57 0z"/>
   <path id="1234567891011121314151617181920212223242526272829303132" class="fil0" d="M8052 3026l59 -6c3,20 11,34 22,44 11,9 25,14 44,14 19,0 34,-4 44,-12 10,-8 15,-18 15,-29 0,-7 -2,-13 -6,-18 -4,-5 -11,-9 -22,-13 -7,-3 -23,-7 -48,-13 -32,-8 -55,-18 -68,-30 -18,-16 -28,-36 -28,-60 0,-15 4,-29 13,-43 9,-13 21,-23 37,-30 16,-7 36,-10 59,-10 38,0 66,8 85,25 19,17 29,38 30,66l-60 3c-3,-15 -8,-26 -17,-33 -8,-7 -21,-10 -38,-10 -18,0 -31,4 -41,11 -6,5 -10,11 -10,19 0,7 3,13 9,18 8,6 26,13 55,20 29,7 51,14 65,22 14,7 25,18 33,30 8,13 12,29 12,48 0,17 -5,33 -14,48 -10,15 -23,26 -40,33 -17,7 -39,11 -65,11 -38,0 -67,-9 -87,-26 -20,-17 -32,-43 -36,-76z"/>
   <path id="123456789101112131415161718192021222324252627282930313233" class="fil0" d="M8334 3012c0,-19 5,-37 14,-55 9,-18 23,-31 40,-41 17,-9 36,-14 58,-14 33,0 60,11 81,32 21,21 31,48 31,81 0,33 -11,60 -32,81 -21,22 -48,32 -80,32 -20,0 -39,-4 -57,-13 -18,-9 -32,-22 -41,-39 -9,-17 -14,-38 -14,-63zm59 3c0,22 5,38 15,49 10,11 23,17 38,17 15,0 27,-6 38,-17 10,-11 15,-28 15,-50 0,-21 -5,-38 -15,-49 -10,-11 -23,-17 -38,-17 -15,0 -28,6 -38,17 -10,11 -15,28 -15,49z"/>
   <path id="12345678910111213141516171819202122232425262728293031323334" class="fil0" d="M8792 2971l-57 10c-2,-11 -6,-20 -13,-25 -7,-6 -15,-9 -26,-9 -14,0 -26,5 -34,15 -8,10 -13,26 -13,49 0,26 4,44 13,54 9,11 20,16 35,16 11,0 20,-3 27,-9 7,-6 12,-17 15,-32l56 10c-6,26 -17,45 -34,59 -17,13 -39,20 -67,20 -32,0 -57,-10 -76,-30 -19,-20 -28,-48 -28,-83 0,-36 9,-64 28,-83 19,-20 44,-30 77,-30 26,0 47,6 63,17 16,11 27,29 34,52z"/>
   <path id="1234567891011121314151617181920212223242526272829303132333435" class="fil0" d="M8837 2878l0 -53 57 0 0 53 -57 0zm0 246l0 -217 57 0 0 217 -57 0z"/>
   <path id="123456789101112131415161718192021222324252627282930313233343536" class="fil0" d="M9079 3055l57 10c-7,21 -19,37 -35,48 -16,11 -36,16 -59,16 -38,0 -66,-12 -84,-37 -14,-20 -21,-45 -21,-75 0,-36 9,-64 28,-84 19,-20 42,-30 71,-30 32,0 58,11 76,32 19,21 27,54 27,98l-144 0c0,17 5,30 14,40 9,9 20,14 33,14 9,0 17,-2 23,-7 6,-5 11,-13 14,-24zm3 -58c0,-17 -5,-29 -13,-38 -8,-9 -18,-13 -30,-13 -13,0 -23,5 -31,14 -8,9 -12,21 -12,37l86 0z"/>
   <path id="12345678910111213141516171819202122232425262728293031323334353637" class="fil0" d="M9287 2907l0 46 -39 0 0 87c0,18 0,28 1,31 1,3 2,5 5,7 3,2 6,3 10,3 5,0 13,-2 23,-5l5 44c-13,6 -28,9 -45,9 -10,0 -20,-2 -28,-5 -8,-3 -14,-8 -18,-14 -4,-5 -7,-13 -8,-22 -1,-7 -2,-20 -2,-40l0 -94 -26 0 0 -46 26 0 0 -43 57 -33 0 77 39 0z"/>
   <path id="1234567891011121314151617181920212223242526272829303132333435363738" class="fil0" d="M9301 2907l61 0 52 154 51 -154 59 0 -76 208 -14 38c-5,13 -10,22 -14,29 -5,7 -10,12 -16,16 -6,4 -13,7 -22,10 -9,2 -18,3 -29,3 -11,0 -22,-1 -32,-3l-5 -45c9,2 17,3 24,3 13,0 23,-4 30,-12 6,-8 11,-18 15,-30l-82 -217z"/>
  </g>
 </g>
</svg>
